<?xml version="1.0" encoding="utf-8"?>
<!-- Generator: Adobe Illustrator 22.1.0, SVG Export Plug-In . SVG Version: 6.00 Build 0)  -->
<svg version="1.1" id="Layer_1" xmlns="http://www.w3.org/2000/svg" xmlns:xlink="http://www.w3.org/1999/xlink" x="0px" y="0px"
	 viewBox="0 0 39 54" style="enable-background:new 0 0 39 54;" xml:space="preserve">
<style type="text/css">
	.st0{fill:#ADB8C1;}
</style>
<g>
	<path class="st0" d="M29.5,8.2H10.8c-2,0-3.6,1.6-3.6,3.6v31.3c0,1.9,1.6,3.6,3.6,3.6h18.8c2,0,3.6-1.6,3.6-3.6V11.8
		C33.2,9.8,31.6,8.2,29.5,8.2z M32,43.1c0,1.4-1.1,2.5-2.5,2.5H10.8c-1.4,0-2.5-1.1-2.5-2.5V11.8c0-1.4,1.1-2.5,2.5-2.5l18.8,0
		c1.4,0,2.5,1.1,2.5,2.5V43.1z"/>
	<path class="st0" d="M20.2,37.8c-1.2,0-2.2,1-2.2,2.2c0,1.2,1,2.2,2.2,2.2c1.2,0,2.2-1,2.2-2.2C22.4,38.8,21.4,37.8,20.2,37.8z
		 M20.2,41.2c-0.6,0-1.1-0.5-1.1-1.1c0-0.6,0.5-1.1,1.1-1.1c0.5,0,1,0.5,1.1,1.1C21.2,40.8,20.8,41.2,20.2,41.2z"/>
	<path class="st0" d="M24.1,18.3c-3.4,0-5.7,2.7-5.7,6.8c0,0.5,0,1,0.1,1.4c-0.1,0-0.1,0-0.2,0h-1.1c0.1-0.1,0.1-0.2,0.1-0.2v-7.9
		H15l-5,9.3h6.2v3.3c0,0.4,0.3,0.6,0.6,0.6s0.5-0.3,0.6-0.5v-3.3h1c0.2,0,0.3-0.1,0.4-0.1c0.7,2.6,2.6,4.1,5.3,4.1
		c1.2,0,2.2-0.2,3.3-0.8l0.4-0.2V25h-2.1c-0.4,0-0.6,0.2-0.6,0.6s0.3,0.6,0.6,0.6h0.9v3.9c-0.9,0.3-1.7,0.5-2.6,0.5
		c-4,0-4.4-3.8-4.4-5.4c0-3.5,1.7-5.7,4.5-5.7c1,0,2,0.3,2.9,0.9c0.2,0.2,0.6,0.1,0.8-0.2c0.2-0.2,0.1-0.6-0.2-0.8
		C26.6,18.7,25.4,18.3,24.1,18.3z M11.9,26.5l3.7-7h0.5v6.7c0,0.1,0.1,0.2,0.1,0.2H11.9z"/>
</g>
</svg>
