<?xml version="1.0" encoding="utf-8"?>
<!-- Generator: Adobe Illustrator 21.0.1, SVG Export Plug-In . SVG Version: 6.00 Build 0)  -->
<svg version="1.1" id="Layer_1" xmlns="http://www.w3.org/2000/svg" xmlns:xlink="http://www.w3.org/1999/xlink" x="0px" y="0px"
	 viewBox="0 0 25.8 38.2" style="enable-background:new 0 0 25.8 38.2;" xml:space="preserve">
<style type="text/css">
	.st0{fill:#ADB8C1;}
</style>
<g>
	<path class="st0" d="M22.1,0H3.6C1.6,0,0,1.6,0,3.6v31c0,1.9,1.6,3.6,3.6,3.6h18.6c2,0,3.6-1.6,3.6-3.6v-31C25.7,1.6,24.1,0,22.1,0
		z M24.5,34.5c0,1.4-1.1,2.5-2.5,2.5H3.6c-1.4,0-2.5-1.1-2.5-2.5v-31C1.1,2.1,2.2,1,3.6,1h18.6c1.4,0,2.5,1.1,2.5,2.5L24.5,34.5
		L24.5,34.5z"/>
	<path class="st0" d="M12.9,29.3c-1.2,0-2.2,1-2.2,2.2s1,2.2,2.2,2.2s2.2-1,2.2-2.2C15,30.3,14,29.3,12.9,29.3z M12.9,32.6
		c-0.6,0-1.1-0.5-1.1-1.1s0.5-1.1,1.1-1.1c0.5,0,1,0.5,1.1,1.1C13.9,32.3,13.5,32.6,12.9,32.6z"/>
	<path class="st0" d="M16.7,10c-3.4,0-5.6,2.7-5.6,6.7c0,0.5,0,1,0.1,1.4c-0.1,0-0.1,0-0.2,0H9.9C10,18,10,17.9,10,17.9v-7.8H7.7
		l-4.9,9.2h6.1v3.3c0,0.4,0.3,0.6,0.6,0.6s0.5-0.3,0.6-0.5v-3.3h1c0.2,0,0.3-0.1,0.4-0.1c0.7,2.6,2.6,4.1,5.2,4.1
		c1.2,0,2.2-0.2,3.3-0.8l0.4-0.2v-5.7h-2.1c-0.4,0-0.6,0.2-0.6,0.6s0.3,0.6,0.6,0.6h0.9v3.9c-0.9,0.3-1.7,0.5-2.6,0.5
		c-4,0-4.4-3.8-4.4-5.3c0-3.5,1.7-5.6,4.5-5.6c1,0,2,0.3,2.9,0.9c0.2,0.2,0.6,0.1,0.8-0.2c0.2-0.2,0.1-0.6-0.2-0.8
		C19.2,10.4,18,10,16.7,10z M4.7,18.1l3.7-6.9h0.5v6.6C8.9,17.9,9,18,9,18L4.7,18.1L4.7,18.1z"/>
</g>
</svg>
