<?xml version="1.0" encoding="utf-8"?>
<!-- Generator: Adobe Illustrator 21.0.1, SVG Export Plug-In . SVG Version: 6.00 Build 0)  -->
<svg version="1.1" id="Слой_1" xmlns="http://www.w3.org/2000/svg" xmlns:xlink="http://www.w3.org/1999/xlink" x="0px" y="0px"
	 viewBox="0 0 13.2 33.9" style="enable-background:new 0 0 13.2 33.9;" xml:space="preserve">
<style type="text/css">
	.st0{fill:#ADB8C1;}
</style>
<g>
	<path class="st0" d="M11.6,8.6h-0.4V1.2H9.6V0H3.5v1.2H2v7.4H1.8c-1,0-1.8,0.8-1.8,1.8v4.4c0,0.7,0.2,1.8,0.5,2.5l2.1,4.6
		c0.3,0.7,1.1,1.3,1.9,1.4v10.6h4.1V23.3c0.8-0.1,1.6-0.6,1.9-1.4l2.2-4.6c0.3-0.7,0.5-1.8,0.5-2.5v-4.4C13.2,9.4,12.4,8.6,11.6,8.6
		z M3,2.2h1.5V0.9h4.2v1.2h1.5v6.5H3V2.2z M3,9.6h7.2V12c-0.4,0.4-1.8,1.6-3.6,1.6S3.3,12.4,3,12V9.6z M7.7,33H5.4v-9.6h2.2L7.7,33
		L7.7,33z M12.4,14.7c0,0.6-0.3,1.7-0.4,2.2l-2.2,4.6c-0.3,0.4-0.9,0.9-1.3,0.9H4.8c-0.5,0-1.1-0.4-1.3-0.9l-2.1-4.6
		C1.1,16.4,1,15.3,1,14.7v-4.4c0-0.4,0.4-0.8,0.8-0.8H2v2.8l0.1,0.2c0.1,0.1,1.8,2,4.5,2s4.4-1.9,4.5-2l0.1-0.2V9.6h0.4
		c0.4,0,0.8,0.4,0.8,0.8C12.4,10.4,12.4,14.7,12.4,14.7z"/>
	<path class="st0" d="M4.7,3.3c-0.3,0-0.4,0.2-0.4,0.4V7c0,0.3,0.2,0.4,0.4,0.4C5,7.4,5.1,7.2,5.1,7V3.9C5.2,3.6,5,3.3,4.7,3.3z"/>
	<path class="st0" d="M6.6,3.3c-0.3,0-0.4,0.2-0.4,0.4V7c0,0.3,0.2,0.4,0.4,0.4C6.8,7.5,7,7.4,7,7.1V3.9C7,3.6,6.8,3.3,6.6,3.3z"/>
	<path class="st0" d="M8.5,3.3c-0.3,0-0.4,0.2-0.4,0.4V7c0,0.3,0.2,0.4,0.4,0.4c0.3,0,0.4-0.2,0.4-0.4V3.9C8.9,3.6,8.7,3.3,8.5,3.3z
		"/>
</g>
</svg>
