<?xml version="1.0" encoding="utf-8"?>
<!-- Generator: Adobe Illustrator 21.0.1, SVG Export Plug-In . SVG Version: 6.00 Build 0)  -->
<svg version="1.1" id="Capa_1" xmlns="http://www.w3.org/2000/svg" xmlns:xlink="http://www.w3.org/1999/xlink" x="0px" y="0px"
	 viewBox="0 0 32.6 33.3" style="enable-background:new 0 0 32.6 33.3;" xml:space="preserve">
<style type="text/css">
	.st0{fill:#9C9C9C;}
</style>
<path class="st0" d="M14.7,33.3c-0.1,0-0.2,0-0.3-0.1L0.2,18.8c-0.2-0.2-0.2-0.5,0-0.7L17.1,0.5c0.1-0.1,0.2-0.1,0.3-0.1h7.1
	c0.1,0,0.3,0,0.4,0.1l1.8,2c0.2,0.2,0.1,0.5,0,0.7s-0.5,0.1-0.7,0l-1.6-1.8h-6.7L1.2,18.5l13.5,13.6L30.9,15V7.6L30.1,7
	c-0.2-0.1-0.2-0.5-0.1-0.7c0.1-0.2,0.5-0.2,0.7-0.1l1,0.7c0.1,0.1,0.2,0.2,0.2,0.4v7.8c0,0.1,0,0.2-0.1,0.3L15.1,33.1
	C14.9,33.2,14.8,33.2,14.7,33.3L14.7,33.3z"/>
<path class="st0" d="M13.9,25L13.9,25c-0.2,0-0.4-0.1-0.4-0.3l-1.3-3.6l-3.8-0.9c-0.2,0-0.3-0.2-0.3-0.4c0-0.2,0-0.4,0.2-0.5l3-2.4
	L11,13c0-0.2,0.1-0.3,0.2-0.4c0.1-0.1,0.3-0.1,0.5,0l3.3,2.1l3.6-1.4c0.2,0,0.4,0,0.5,0.1s0.2,0.3,0.1,0.5l-1,3.8l2.5,3
	c0.1,0.1,0.1,0.3,0.1,0.5c0,0.1-0.2,0.3-0.4,0.3l-3.9,0.2l-2,3.3C14.2,24.9,14.1,25,13.9,25z M9.5,19.4l3.1,0.8
	c0.1,0,0.3,0.1,0.3,0.3l1.1,3l1.7-2.7c0.1-0.1,0.2-0.2,0.4-0.2l3.2-0.1l-2-2.5c-0.1-0.1-0.1-0.3-0.1-0.4l0.8-3.1l-3,1.2
	c-0.1,0-0.3,0-0.4,0l-2.7-1.8l0.2,3.2c0,0.1,0,0.3-0.2,0.4L9.5,19.4z"/>
<path class="st0" d="M24,12.1c-1.9,0-3.4-1.5-3.4-3.4s1.5-3.4,3.4-3.4s3.4,1.5,3.4,3.4S25.8,12.1,24,12.1z M24,6.3
	c-1.3,0-2.5,1.1-2.5,2.5s1.1,2.5,2.5,2.5c1.3,0,2.5-1.1,2.5-2.5S25.3,6.3,24,6.3z"/>
<path class="st0" d="M24.5,10.1c-0.7,0-1.3-0.2-1.7-0.7c-0.5-0.6-0.7-1.3-0.6-2.2c0-0.2,0.3-0.4,0.6-0.4c0.2,0,0.4,0.3,0.4,0.6
	c-0.1,0.5,0,1,0.3,1.3c0.6,0.6,1.7,0.5,2.5-0.2l4.8-4.6c0.4-0.4,0.6-0.8,0.7-1.3c0-0.5-0.1-0.8-0.3-1.2C30.9,1.1,30.5,1,30.1,1
	c-0.5,0-1,0.2-1.3,0.6c-0.2,0.2-0.5,0.2-0.7,0s-0.2-0.5,0-0.7C28.7,0.4,29.3,0.1,30,0c0.7,0,1.4,0.2,1.9,0.7
	c0.5,0.5,0.7,1.2,0.6,1.9c-0.1,0.7-0.4,1.3-1,1.9l-4.8,4.6C26,9.8,25.3,10.1,24.5,10.1z"/>
</svg>
