<?xml version="1.0" encoding="utf-8"?>
<!-- Generator: Adobe Illustrator 22.1.0, SVG Export Plug-In . SVG Version: 6.00 Build 0)  -->
<svg version="1.1" id="Layer_1" xmlns="http://www.w3.org/2000/svg" xmlns:xlink="http://www.w3.org/1999/xlink" x="0px" y="0px"
	 viewBox="0 0 54 54" style="enable-background:new 0 0 54 54;" xml:space="preserve">
<style type="text/css">
	.st0{fill:#B2BCC5;}
</style>
<g>
	<path class="st0" d="M40.4,21.6c-0.3,0.1-0.4,0.4-0.3,0.7c1,2.3,1.5,4.6,1.5,7.1c0,9.9-8.1,18-18,18c-9.9,0-18-8.1-18-18
		c0-9.9,8.1-18,18-18c1.5,0,2.9,0.2,4.3,0.5c0.3,0.1,0.6-0.1,0.7-0.4c0.1-0.3-0.1-0.6-0.4-0.7c-1.5-0.4-3.1-0.6-4.6-0.6
		c-5.1,0-9.9,2-13.5,5.6c-3.6,3.6-5.6,8.4-5.6,13.5c0,5.1,2,9.9,5.6,13.5c3.6,3.6,8.4,5.6,13.5,5.6c5.1,0,9.9-2,13.5-5.6
		c3.6-3.6,5.6-8.4,5.6-13.5c0-2.6-0.5-5.2-1.6-7.6C41,21.6,40.7,21.5,40.4,21.6z"/>
	<path class="st0" d="M46.8,8.2c-0.1-0.3-0.4-0.5-0.7-0.4c-1.8,0.5-4,2.1-6.6,4.8c-2.3,2.3-4.7,5.4-7.1,8.9
		c-4.2,6.2-7.5,12.7-8.8,17c-2-4.7-6.6-12.4-10.8-14.5c-0.3-0.1-0.6,0-0.7,0.3c-0.1,0.3,0,0.6,0.3,0.7c4.3,2.1,9.5,11.2,10.9,15.5
		c0,0,0,0,0,0c0,0,0,0.1,0,0.1c0,0,0,0,0,0c0,0,0,0,0,0.1c0,0,0,0,0,0c0,0,0,0,0,0c0,0,0,0,0,0c0,0,0,0,0.1,0c0,0,0,0,0,0
		c0,0,0.1,0.1,0.1,0.1c0,0,0,0,0,0c0,0,0,0,0.1,0c0,0,0,0,0,0c0,0,0,0,0,0c0,0,0.1,0,0.1,0c0,0,0,0,0,0c0,0,0,0,0,0c0,0,0,0,0,0
		c0,0,0,0,0,0c0,0,0,0,0,0c0,0,0,0,0,0c0,0,0,0,0,0c0,0,0,0,0,0c0,0,0,0,0,0c0,0,0,0,0,0c0,0,0,0,0,0c0,0,0,0,0,0c0,0,0,0,0,0
		c0,0,0,0,0,0c0,0,0,0,0,0c0,0,0,0,0,0c0,0,0,0,0,0c0,0,0,0,0,0c0,0,0,0,0,0c0,0,0,0,0,0c0,0,0,0,0,0c0,0,0,0,0,0c0,0,0,0,0,0
		c0,0,0,0,0,0c0,0,0,0,0,0c0,0,0,0,0,0c0,0,0,0,0,0c0,0,0,0,0,0c0,0,0,0,0,0c0,0,0,0,0,0c0,0,0,0,0,0c0,0,0,0,0,0
		c0.7-4.1,4.3-11.5,9-18.4c2.4-3.5,4.8-6.5,7-8.8c2.4-2.5,4.5-4,6.1-4.5C46.8,8.8,46.9,8.5,46.8,8.2z"/>
</g>
</svg>
