<?xml version="1.0" encoding="utf-8"?>
<!-- Generator: Adobe Illustrator 22.1.0, SVG Export Plug-In . SVG Version: 6.00 Build 0)  -->
<svg version="1.1" id="Layer_1" xmlns="http://www.w3.org/2000/svg" xmlns:xlink="http://www.w3.org/1999/xlink" x="0px" y="0px"
	 viewBox="0 0 135 125" style="enable-background:new 0 0 135 125;" xml:space="preserve">
<style type="text/css">
	.st0{fill:#ACB8C1;}
	.st1{fill:#ADB8C1;}
	.st2{fill:#ADB8C1;stroke:#ACB8C1;stroke-width:0.5;stroke-miterlimit:10;}
	.st3{fill:#ACB8C1;stroke:#ACB8C1;stroke-width:0.5;stroke-miterlimit:10;}
	.st4{fill:#ACB8C1;stroke:#ACB8C1;stroke-miterlimit:10;}
	.st5{fill:none;stroke:#ACB8C1;stroke-width:3.5;stroke-linecap:round;stroke-linejoin:round;stroke-miterlimit:10;}
	.st6{fill:none;stroke:#ACB8C1;stroke-width:3.5;stroke-linejoin:round;stroke-miterlimit:10;}
</style>
<path class="st0" d="M114.8,94.7L114.8,94.7V70.2c0,0,0,0,0-0.2c0,0,0,0,0-0.2v-0.2c0,0,0-0.2-0.2-0.2v-0.2l0,0l-0.2-0.2
	c0,0,0,0-0.2-0.2L91.9,53.7V30.4c0,0,0,0,0-0.2c0-0.2,0-0.4-0.2-0.4v-0.2l0,0c-0.2-0.2-0.4-0.2-0.6-0.4l0,0L68.2,14.2
	c-0.4-0.4-1.2-0.4-1.6,0L43.7,29.2l0,0c-0.2,0.2-0.4,0.2-0.4,0.4l0,0v0.2c0,0.2-0.2,0.4-0.2,0.4s0,0,0,0.2v23.5L20.8,68.6
	c0,0,0,0-0.2,0.2L20.4,69c0,0,0,0.2-0.2,0.2c0,0,0,0,0,0.2v0.2v0.2c0,0,0,0,0,0.2v24.3c0,0.6,0.2,1,0.6,1.2l22.9,15.1
	c0.2,0.2,0.6,0.2,0.8,0.2s0.6,0,0.8-0.2L67,96.3l22.5,14.7c0.2,0.2,0.6,0.2,0.8,0.2s0.6,0,0.8-0.2L114,95.9c0,0,0,0,0.2-0.2l0.2-0.2
	l0.2-0.2c0,0,0-0.2,0.2-0.2C114.8,94.9,114.8,94.9,114.8,94.7z M110.6,70.2L90.3,83.4L69.8,70l20.5-13.5L110.6,70.2z M66.6,46.7
	c0.2,0.2,0.6,0.2,0.8,0.2s0.6,0,0.8-0.2l20.7-13.5v20.7L67.4,68L45.9,53.9V33.2L66.6,46.7z M44.5,56.5l20.1,13.3L44.5,83L24.4,69.8
	L44.5,56.5z M67.4,17.4l20.1,13.3L67.4,43.9L47.3,30.4L67.4,17.4z M44.5,107.3L23,93.3V72.6L43.7,86c0.2,0.2,0.6,0.2,0.8,0.2
	s0.6,0,0.8-0.2L66,72.6v20.7L44.5,107.3z M90.3,107.7L68.8,93.7V73l20.7,13.5c0.2,0.2,0.6,0.2,0.8,0.2s0.6,0,0.8-0.2L111.8,73v20.7
	L90.3,107.7z"/>
</svg>
