<svg version="1.1" id="Layer_1" xmlns="http://www.w3.org/2000/svg" xmlns:xlink="http://www.w3.org/1999/xlink" x="0px" y="0px" viewBox="4 1.9 580 396" enable-background="new 4 1.9 580 396" xml:space="preserve">
    <path fill="#ADB8C1" d="M525.6,395.9H62.4C30.2,395.9,4,369.7,4,337.6V60.2C4,28.1,30.2,1.9,62.4,1.9h463.2 C557.8,1.9,584,28,584,60.2v277.4C584,369.7,557.8,395.9,525.6,395.9z M62.4,28.4c-17.5,0-31.8,14.3-31.8,31.8v277.4 c0,17.5,14.3,31.7,31.8,31.7h463.2c17.5,0,31.8-14.2,31.8-31.7V60.2c0-17.5-14.3-31.8-31.8-31.8L62.4,28.4L62.4,28.4z"/>
    <path fill="#ADB8C1" d="M294,303.1c-3.4,0-6.8-1.3-9.4-3.9L24,39.3c-5.2-5.2-5.2-13.6,0-18.8c5.2-5.2,13.6-5.2,18.8,0L294,271 L546.5,19.2c5.2-5.2,13.6-5.2,18.8,0s5.2,13.6,0,18.8L303.4,299.2C300.8,301.8,297.4,303.1,294,303.1z"/>
    <path fill="#ADB8C1" d="M557.2,379.9c-3.4,0-6.8-1.3-9.4-3.9L380.3,209c-5.2-5.2-5.2-13.6,0-18.8c5.2-5.2,13.6-5.2,18.8,0l167.4,167 c5.2,5.2,5.2,13.6,0,18.8C564,378.6,560.6,379.9,557.2,379.9z"/>
    <path fill="#ADB8C1" d="M31.8,379c-3.4,0-6.8-1.3-9.4-3.9c-5.2-5.2-5.2-13.6,0-18.8l168.1-167.7c5.2-5.2,13.6-5.2,18.8,0 c5.2,5.2,5.2,13.6,0,18.8L41.2,375.1C38.6,377.7,35.2,379,31.8,379z"/>
</svg>