<?xml version="1.0" encoding="utf-8"?>
<!-- Generator: Adobe Illustrator 21.0.1, SVG Export Plug-In . SVG Version: 6.00 Build 0)  -->
<svg version="1.1" id="Capa_1" xmlns="http://www.w3.org/2000/svg" xmlns:xlink="http://www.w3.org/1999/xlink" x="0px" y="0px"
	 viewBox="0 0 18 18" style="enable-background:new 0 0 18 18;" xml:space="preserve">
<style type="text/css">
	.st0{fill:#9C9C9C;}
</style>
<g>
	<g id="calendar_2_">
		<path class="st0" d="M16.4,1.7H14V0.6C14,0.3,13.8,0,13.4,0s-0.6,0.2-0.6,0.6v1.1H9.4V0.6C9.4,0.3,9.2,0,8.8,0S8.4,0.2,8.4,0.6
			v1.1H5V0.6C5,0.3,4.8,0,4.4,0S3.9,0.2,3.9,0.6v1.1H1.5C0.6,1.7,0,2.4,0,3.2v13.3C0,17.3,0.7,18,1.5,18h15c0.8,0,1.5-0.7,1.5-1.5
			V3.2C17.9,2.4,17.3,1.7,16.4,1.7z M16.8,16.5c0,0.2-0.2,0.4-0.4,0.4h-15c-0.2,0-0.4-0.2-0.4-0.4V3.2C1,3,1.2,2.8,1.4,2.8h2.4v1.1
			c0.1,0.4,0.3,0.6,0.6,0.6S5,4.3,5,3.9V2.8h3.4v1.1c0,0.4,0.2,0.6,0.5,0.6s0.6-0.2,0.6-0.6V2.8h3.4v1.1c0,0.3,0.2,0.6,0.6,0.6
			s0.6-0.2,0.6-0.6V2.8h2.4c0.2,0,0.4,0.2,0.4,0.4v13.3H16.8z"/>
		<rect x="3.9" y="6.7" class="st0" width="2.2" height="1.7"/>
		<rect x="3.9" y="9.6" class="st0" width="2.2" height="1.7"/>
		<rect x="3.9" y="12.4" class="st0" width="2.2" height="1.7"/>
		<rect x="7.8" y="12.4" class="st0" width="2.2" height="1.7"/>
		<rect x="7.8" y="9.6" class="st0" width="2.2" height="1.7"/>
		<rect x="7.8" y="6.7" class="st0" width="2.2" height="1.7"/>
		<rect x="11.8" y="12.4" class="st0" width="2.2" height="1.7"/>
		<rect x="11.8" y="9.6" class="st0" width="2.2" height="1.7"/>
		<rect x="11.8" y="6.7" class="st0" width="2.2" height="1.7"/>
	</g>
</g>
</svg>
