<?xml version="1.0" encoding="utf-8"?>
<!-- Generator: Adobe Illustrator 21.0.1, SVG Export Plug-In . SVG Version: 6.00 Build 0)  -->
<svg version="1.1" id="Capa_1" xmlns="http://www.w3.org/2000/svg" xmlns:xlink="http://www.w3.org/1999/xlink" x="0px" y="0px"
	 viewBox="0 0 35.9 33.7" style="enable-background:new 0 0 35.9 33.7;" xml:space="preserve">
<style type="text/css">
	.st0{fill:#9C9C9C;}
</style>
<g>
	<path class="st0" d="M35.5,7.3L10,3.4C9.7,3.3,9.4,3.5,9.4,3.8C9.3,4.1,9.5,4.4,9.8,4.4l25,3.8v10.2c0,0.1,0,0.4,0,0.4
		c0,0.1-0.3,0.4-0.5,0.5c-0.1,0.1-0.7,0.3-0.9,0.3c0,0-0.3,0-0.5,0H9.1c-0.2-0.1-0.4-0.1-0.5-0.1c-0.2-0.1-0.7-0.7-1.1-1.3V2
		c0-0.1-0.1-0.1-0.1-0.2C7.2,1.5,6.8,0.7,6.5,0.5C6.2,0.3,5.4,0.1,5,0H4.9H0.5C0.2,0,0,0.2,0,0.5C0,0.8,0.2,1,0.5,1h4.3
		c0.5,0.1,1,0.2,1.1,0.3c0,0.1,0.3,0.5,0.5,0.9v20.9c0,0.2,0,0.7,0.1,1c0.2,0.4,0.7,0.9,1.1,1.1c0.3,0.2,1.1,0.2,1.5,0.2
		c0.1,0,0.2,0,0.3-0.1h25.5c0.3,0,0.5-0.2,0.5-0.5c0-0.3-0.2-0.5-0.5-0.5H9.5c-0.6,0-1.3,0-1.4-0.1c-0.1,0-0.4-0.4-0.5-0.5
		c-0.1-0.1-0.1-0.4-0.1-0.7v-3.1c0.2,0.3,0.5,0.5,0.7,0.6c0.2,0.1,0.6,0.2,0.9,0.2h23.8c0.1,0,0.2,0,0.4,0c0.1,0,0.2,0,0.3-0.1
		c0.3,0,1-0.2,1.3-0.4c0.3-0.2,0.7-0.7,0.9-1.1c0.1-0.1,0.1-0.4,0.1-0.7V7.8C35.9,7.5,35.7,7.3,35.5,7.3z"/>
	<path class="st0" d="M12.8,27.3c-1.8,0-3.3,1.4-3.3,3.2c0,1.8,1.5,3.2,3.3,3.2s3.3-1.4,3.3-3.2C16.1,28.7,14.6,27.3,12.8,27.3z
		 M12.8,32.7c-1.3,0-2.3-1-2.3-2.2c0-1.2,1-2.2,2.3-2.2c1.2,0,2.3,1,2.3,2.2C15.1,31.7,14.1,32.7,12.8,32.7z"/>
	<path class="st0" d="M31.2,27.3c-1.8,0-3.3,1.4-3.3,3.2c0,1.8,1.5,3.2,3.3,3.2c1.8,0,3.3-1.4,3.3-3.2C34.5,28.7,33,27.3,31.2,27.3z
		 M31.2,32.7c-1.3,0-2.3-1-2.3-2.2c0-1.2,1-2.2,2.3-2.2c1.3,0,2.3,1,2.3,2.2C33.5,31.7,32.5,32.7,31.2,32.7z"/>
</g>
</svg>
