<?xml version="1.0" encoding="utf-8"?>
<!-- Generator: Adobe Illustrator 21.0.1, SVG Export Plug-In . SVG Version: 6.00 Build 0)  -->
<svg version="1.1" id="Слой_1" xmlns="http://www.w3.org/2000/svg" xmlns:xlink="http://www.w3.org/1999/xlink" x="0px" y="0px"
	 viewBox="0 0 20.1 26.4" style="enable-background:new 0 0 20.1 26.4;" xml:space="preserve">
<style type="text/css">
	.st0{fill:#ADB8C1;}
</style>
<g>
	<path class="st0" d="M20,4L20,4l-4-4H0v26.4h20.1L20,4L20,4z M16.2,1.4l2.6,2.5h-2.6V1.4z M0.8,25.6V0.8h14.6v3.9h3.9v20.9
		C19.3,25.6,0.8,25.6,0.8,25.6z"/>
	<path class="st0" d="M14.6,8.9H5.4C5.2,8.9,5,9.1,5,9.3s0.2,0.4,0.4,0.4h9.3c0.2,0,0.4-0.2,0.4-0.4C15,9.1,14.9,8.9,14.6,8.9z"/>
	<path class="st0" d="M14.6,12.6H5.4C5.2,12.6,5,12.8,5,13s0.2,0.4,0.4,0.4h9.3c0.2,0,0.4-0.2,0.4-0.4S14.9,12.6,14.6,12.6z"/>
	<path class="st0" d="M14.6,16.4H5.4c-0.2,0-0.4,0.2-0.4,0.4s0.2,0.4,0.4,0.4h9.3c0.2,0,0.4-0.2,0.4-0.4S14.9,16.4,14.6,16.4z"/>
</g>
</svg>
