<?xml version="1.0" encoding="utf-8"?>
<!-- Generator: Adobe Illustrator 21.0.1, SVG Export Plug-In . SVG Version: 6.00 Build 0)  -->
<svg version="1.1" id="Capa_1" xmlns="http://www.w3.org/2000/svg" xmlns:xlink="http://www.w3.org/1999/xlink" x="0px" y="0px"
	 viewBox="0 0 30.6 16.7" style="enable-background:new 0 0 30.6 16.7;" xml:space="preserve">
<style type="text/css">
	.st0{fill:#B2BCC5;}
</style>
<g>
	<path class="st0" d="M29.6,7.4c-0.1-0.1-1.5-1.9-4-3.7C22.4,1.3,18.7,0,15.2,0S8.1,1.3,4.7,3.7c-2.5,1.8-3.9,3.6-4,3.7L0,8.3l0.8,1
		c0.1,0.1,1.5,1.9,4,3.7c3.3,2.4,6.9,3.7,10.5,3.7c3.5,0,7.1-1.3,10.5-3.7c2.5-1.8,3.9-3.6,4-3.7l0.8-0.9L29.6,7.4z M28.8,8.7
		c-0.1,0.1-1.4,1.8-3.8,3.5c-3.1,2.3-6.5,3.5-9.9,3.5c-3.3,0-6.7-1.2-9.9-3.5c-2.4-1.7-3.7-3.4-3.8-3.5L1.2,8.4l0.2-0.3
		C1.5,8,2.8,6.3,5.2,4.6c3.1-2.3,6.5-3.5,9.9-3.5c3.3,0,6.7,1.2,9.9,3.5c2.4,1.7,3.7,3.4,3.8,3.5L29,8.4L28.8,8.7z"/>
	<path class="st0" d="M15.2,2.7c-3.1,0-5.7,2.5-5.7,5.7s2.5,5.7,5.7,5.7s5.7-2.5,5.7-5.7S18.3,2.7,15.2,2.7z M15.2,13
		c-2.6,0-4.6-2.1-4.6-4.6c0-2.6,2.1-4.6,4.6-4.6c2.6,0,4.6,2.1,4.6,4.6S17.8,13,15.2,13z"/>
	<path class="st0" d="M15.2,4.9v1c1.4,0,2.5,1.1,2.5,2.5h1C18.7,6.4,17.1,4.9,15.2,4.9z"/>
</g>
</svg>
