<?xml version="1.0" encoding="utf-8"?>
<!-- Generator: Adobe Illustrator 22.1.0, SVG Export Plug-In . SVG Version: 6.00 Build 0)  -->
<svg version="1.1" id="Capa_1" xmlns="http://www.w3.org/2000/svg" xmlns:xlink="http://www.w3.org/1999/xlink" x="0px" y="0px"
	 viewBox="0 0 39 31" style="enable-background:new 0 0 39 31;" xml:space="preserve">
<style type="text/css">
	.st0{fill:#adb8c1;}
</style>
<g>
	<path class="st0" d="M34.2,14.1c-0.1-0.1-1.5-1.9-4-3.7C27,8,23.3,6.7,19.8,6.7S12.7,8,9.3,10.4c-2.5,1.8-3.9,3.6-4,3.7l-0.7,0.9
		L5.4,16c0.1,0.1,1.5,1.9,4,3.7c3.3,2.4,6.9,3.7,10.5,3.7c3.5,0,7.1-1.3,10.5-3.7c2.5-1.8,3.9-3.6,4-3.7l0.8-0.9L34.2,14.1z
		 M33.4,15.4c-0.1,0.1-1.4,1.8-3.8,3.5c-3.1,2.3-6.5,3.5-9.9,3.5c-3.3,0-6.7-1.2-9.9-3.5c-2.4-1.7-3.7-3.4-3.8-3.5l-0.2-0.3l0.2-0.3
		c0.1-0.1,1.4-1.8,3.8-3.5c3.1-2.3,6.5-3.5,9.9-3.5c3.3,0,6.7,1.2,9.9,3.5c2.4,1.7,3.7,3.4,3.8,3.5l0.2,0.3L33.4,15.4z"/>
	<path class="st0" d="M19.8,9.4c-3.1,0-5.7,2.5-5.7,5.7s2.5,5.7,5.7,5.7s5.7-2.5,5.7-5.7C25.5,11.9,22.9,9.4,19.8,9.4z M19.8,19.7
		c-2.6,0-4.6-2.1-4.6-4.6c0-2.6,2.1-4.6,4.6-4.6c2.6,0,4.6,2.1,4.6,4.6C24.4,17.6,22.4,19.7,19.8,19.7z"/>
	<path class="st0" d="M19.8,11.6v1c1.4,0,2.5,1.1,2.5,2.5h1C23.3,13.1,21.7,11.6,19.8,11.6z"/>
</g>
</svg>
