<?xml version="1.0" encoding="utf-8"?>
<!-- Generator: Adobe Illustrator 22.1.0, SVG Export Plug-In . SVG Version: 6.00 Build 0)  -->
<svg version="1.1" id="Capa_1" xmlns="http://www.w3.org/2000/svg" xmlns:xlink="http://www.w3.org/1999/xlink" x="0px" y="0px"
	 viewBox="0 0 49.7 49.7" style="enable-background:new 0 0 49.7 49.7;" xml:space="preserve">
<style type="text/css">
	.st0{fill:#FFFFFF;}
</style>
<g>
	<g>
		<path class="st0" d="M24.8,7.8c-9.4,0-17.1,7.6-17.1,17.1s7.6,17.1,17.1,17.1s17.1-7.6,17.1-17.1C42,15.4,34.3,7.8,24.8,7.8z
			 M29.1,25.5h-2.8c0,4.5,0,9.9,0,9.9h-4.1c0,0,0-5.4,0-9.9h-1.9V22h1.9v-2.3c0-1.7,0.8-4.1,4.1-4.1h3v3.4c0,0-1.9,0-2.2,0
			s-0.8,0.2-0.8,1V22h3.2L29.1,25.5z"/>
	</g>
</g>
</svg>
