<?xml version="1.0" encoding="utf-8"?>
<!-- Generator: Adobe Illustrator 21.0.1, SVG Export Plug-In . SVG Version: 6.00 Build 0)  -->
<svg version="1.1" id="Слой_1" xmlns="http://www.w3.org/2000/svg" xmlns:xlink="http://www.w3.org/1999/xlink" x="0px" y="0px"
	 viewBox="0 0 38.4 37.3" style="enable-background:new 0 0 38.4 37.3;" xml:space="preserve">
<style type="text/css">
	.st0{fill:#ACB8C1;}
</style>
<path class="st0" d="M38,18.1L20.4,0.5c-0.6-0.6-1.6-0.6-2.3,0L0.4,18.1C-0.1,18.6,0,19,0.1,19.3c0,0.2,0.3,0.6,1.1,0.6h5v17.4h26.2
	V19.8h4.9c0.8,0,1-0.4,1.1-0.6C38.5,19,38.4,18.6,38,18.1z M31.2,18.8v17.4h-24V18.8h-6L18.8,1.3C19,1,19.4,1,19.6,1.3l17.6,17.6
	C37.2,18.9,31.2,18.9,31.2,18.8z"/>
<path class="st0" d="M27.6,18.1L27,18.8l-0.1-0.1c-2-2-4.8-3.2-7.7-3.2s-5.6,1.2-7.7,3.1l-0.1,0.2l-0.7-0.7l0.1-0.1
	c2.2-2.2,5.2-3.5,8.3-3.5C22.4,14.6,25.3,15.8,27.6,18.1L27.6,18.1z"/>
<path class="st0" d="M25.4,20.3L24.7,21l-0.1-0.1c-1.5-1.5-3.4-2.2-5.4-2.2s-4,0.8-5.4,2.2L13.7,21l-0.6-0.7l0.1-0.1
	c1.6-1.6,3.8-2.5,6.1-2.5S23.8,18.6,25.4,20.3L25.4,20.3z"/>
<path class="st0" d="M23.1,22.8l-0.7,0.7l-0.1-0.1c-0.9-0.9-1.9-1.3-3.1-1.3s-2.3,0.5-3.1,1.3l-0.1,0l-0.7-0.7l0.1-0.1
	C17.5,20.5,20.9,20.5,23.1,22.8L23.1,22.8z"/>
<path class="st0" d="M20.7,24.9c-0.4-0.4-0.9-0.6-1.5-0.6s-1.1,0.2-1.5,0.6s-0.6,0.9-0.6,1.5s0.2,1.1,0.6,1.5s0.9,0.6,1.5,0.6
	s1.1-0.2,1.5-0.6s0.6-0.9,0.6-1.5S20.9,25.3,20.7,24.9z M18.4,27c-0.2-0.2-0.3-0.5-0.3-0.7c0-0.3,0.1-0.6,0.3-0.7
	c0.2-0.2,0.5-0.3,0.7-0.3s0.6,0.1,0.8,0.3c0.2,0.2,0.3,0.5,0.3,0.7c0,0.3-0.1,0.6-0.3,0.7C19.6,27.4,18.8,27.4,18.4,27z"/>
</svg>
