<?xml version="1.0" encoding="utf-8"?>
<!-- Generator: Adobe Illustrator 22.1.0, SVG Export Plug-In . SVG Version: 6.00 Build 0)  -->
<svg version="1.1" id="Слой_1" xmlns="http://www.w3.org/2000/svg" xmlns:xlink="http://www.w3.org/1999/xlink" x="0px" y="0px"
	 viewBox="0 0 52 53" style="enable-background:new 0 0 52 53;" xml:space="preserve">
<style type="text/css">
	.st0{fill:#ACB8C1;}
</style>
<path class="st0" d="M47.4,26.5L29.2,8.3c-0.6-0.6-1.7-0.6-2.4,0L8.6,26.5c-0.5,0.5-0.4,0.9-0.3,1.2c0,0.2,0.3,0.6,1.1,0.6h5.2v17.9
	h27V28.3h5.1c0.8,0,1-0.4,1.1-0.6C47.9,27.4,47.8,27,47.4,26.5z M40.4,27.2v17.9H15.6V27.2H9.5L27.6,9.1c0.2-0.2,0.6-0.2,0.8,0
	l18.1,18.1H40.4z"/>
<path class="st0" d="M36.7,26.5L36,27.2l-0.1-0.1C33.8,25,31,23.8,28,23.8s-5.8,1.2-7.9,3.2L20,27.2l-0.7-0.7l0.1-0.1
	c2.3-2.3,5.4-3.6,8.6-3.6c3.3,0,6.3,1.2,8.6,3.6L36.7,26.5z"/>
<path class="st0" d="M34.4,28.8l-0.7,0.7l-0.1-0.1c-1.5-1.5-3.5-2.3-5.6-2.3c-2.1,0-4.1,0.8-5.6,2.3l-0.1,0.1l-0.6-0.7l0.1-0.1
	c1.7-1.7,3.9-2.6,6.3-2.6s4.6,0.9,6.3,2.6L34.4,28.8z"/>
<path class="st0" d="M32,31.2l-0.7,0.7l-0.1-0.1c-0.9-0.9-2-1.3-3.2-1.3c-1.2,0-2.4,0.5-3.2,1.3l-0.1,0.1l-0.7-0.7l0.1-0.1
	c2.2-2.1,5.7-2.1,7.8,0L32,31.2z"/>
<path class="st0" d="M29.5,33.5c-0.4-0.4-0.9-0.6-1.5-0.6s-1.1,0.2-1.5,0.6c-0.4,0.4-0.6,0.9-0.6,1.5s0.2,1.1,0.6,1.5
	c0.4,0.4,0.9,0.6,1.5,0.6s1.1-0.2,1.5-0.6c0.4-0.4,0.6-0.9,0.6-1.5S29.8,33.9,29.5,33.5z M27.2,35.7c-0.2-0.2-0.3-0.5-0.3-0.7
	c0-0.3,0.1-0.6,0.3-0.7c0.2-0.2,0.5-0.3,0.7-0.3s0.6,0.1,0.8,0.3c0.2,0.2,0.3,0.5,0.3,0.7c0,0.3-0.1,0.6-0.3,0.7
	C28.4,36.1,27.6,36.1,27.2,35.7z"/>
</svg>
