<?xml version="1.0" encoding="utf-8"?>
<!-- Generator: Adobe Illustrator 21.0.1, SVG Export Plug-In . SVG Version: 6.00 Build 0)  -->
<svg version="1.1" id="Capa_1" xmlns="http://www.w3.org/2000/svg" xmlns:xlink="http://www.w3.org/1999/xlink" x="0px" y="0px"
	 viewBox="0 0 33 33.1" style="enable-background:new 0 0 33 33.1;" xml:space="preserve">
<style type="text/css">
	.st0{fill:#9C9C9C;}
</style>
<path class="st0" d="M16.5,33.1C7.4,33.1,0,25.7,0,16.6S7.4,0,16.5,0S33,7.4,33,16.5S25.6,33.1,16.5,33.1z M16.5,0.9
	c-8.6,0-15.6,7-15.6,15.6s7,15.7,15.6,15.7s15.6-7,15.6-15.6S25.1,0.9,16.5,0.9z"/>
<path class="st0" d="M14.7,26.6C14.6,26.6,14.6,26.6,14.7,26.6c-0.3,0-0.5-0.3-0.5-0.5l2.5-11.6h-2.9c-0.3,0-0.5-0.2-0.5-0.5
	s0.2-0.5,0.5-0.5h3.4c0.1,0,0.3,0,0.4,0.2c0.1,0.1,0.1,0.2,0.1,0.4l-2.6,12.2C15,26.5,14.9,26.6,14.7,26.6z"/>
<circle class="st0" cx="17.6" cy="9.8" r="1.3"/>
</svg>
