<?xml version="1.0" encoding="utf-8"?>
<!-- Generator: Adobe Illustrator 21.0.1, SVG Export Plug-In . SVG Version: 6.00 Build 0)  -->
<svg version="1.1" id="Capa_1" xmlns="http://www.w3.org/2000/svg" xmlns:xlink="http://www.w3.org/1999/xlink" x="0px" y="0px"
	 viewBox="0 0 34.3 34.3" style="enable-background:new 0 0 34.3 34.3;" xml:space="preserve">
<style type="text/css">
	.st0{fill:#ef72ad;}
</style>
<g>
	<path class="st0" d="M17.1,20.5c1.9,0,3.4-1.5,3.4-3.4c0-0.8-0.3-1.5-0.6-2c-0.6-0.9-1.7-1.5-2.8-1.5c-1.2,0-2.2,0.6-2.8,1.5
		c-0.4,0.6-0.6,1.3-0.6,2C13.8,19,15.4,20.5,17.1,20.5z"/>
	<polygon class="st0" points="24.7,10.1 24.7,9.7 24.2,9.7 21.4,9.7 21.4,13 24.7,12.9 	"/>
	<path class="st0" d="M17.1,0.1c-9.4,0-17,7.6-17,17c0,9.4,7.6,17,17,17c9.4,0,17-7.6,17-17C34.3,7.7,26.6,0.1,17.1,0.1z M26.9,15.1
		v8c0,2.1-1.7,3.7-3.7,3.7H11.3c-2.1,0-3.7-1.7-3.7-3.7v-8v-3.9c0-2.1,1.7-3.7,3.7-3.7h11.9c2.1,0,3.7,1.7,3.7,3.7L26.9,15.1z"/>
	<path class="st0" d="M22.5,17.1c0,2.9-2.4,5.3-5.3,5.3s-5.3-2.4-5.3-5.3c0-0.7,0.1-1.4,0.4-2H9.5v8c0,1,0.8,1.9,1.9,1.9h11.9
		c1,0,1.9-0.8,1.9-1.9v-8h-2.9C22.4,15.8,22.5,16.5,22.5,17.1z"/>
</g>
</svg>
