<?xml version="1.0" encoding="utf-8"?>
<!-- Generator: Adobe Illustrator 22.1.0, SVG Export Plug-In . SVG Version: 6.00 Build 0)  -->
<svg version="1.1" id="Capa_1" xmlns="http://www.w3.org/2000/svg" xmlns:xlink="http://www.w3.org/1999/xlink" x="0px" y="0px"
	 viewBox="0 0 49.7 49.7" style="enable-background:new 0 0 49.7 49.7;" xml:space="preserve">
<style type="text/css">
	.st0{fill:#FFFFFF;}
</style>
<g>
	<g>
		<g>
			<path class="st0" d="M24.8,28.3c1.9,0,3.5-1.5,3.5-3.5c0-0.8-0.3-1.5-0.6-2c-0.6-0.9-1.7-1.5-2.8-1.5c-1.2,0-2.2,0.6-2.8,1.5
				c-0.4,0.6-0.6,1.3-0.6,2C21.4,26.8,23,28.3,24.8,28.3z"/>
			<polygon class="st0" points="32.5,20.6 32.5,17.7 32.5,17.3 32,17.3 29.1,17.3 29.1,20.7 			"/>
			<path class="st0" d="M24.8,7.6c-9.6,0-17.3,7.7-17.3,17.3s7.7,17.3,17.3,17.3s17.3-7.7,17.3-17.3C42.2,15.3,34.4,7.6,24.8,7.6z
				 M34.7,22.8v8.1c0,2.1-1.7,3.8-3.8,3.8h-12c-2.1,0-3.8-1.7-3.8-3.8v-8.1v-4c0-2.1,1.7-3.8,3.8-3.8h12.1c2.1,0,3.8,1.7,3.8,3.8
				L34.7,22.8L34.7,22.8z"/>
			<path class="st0" d="M30.2,24.9c0,3-2.4,5.4-5.4,5.4s-5.4-2.4-5.4-5.4c0-0.7,0.1-1.4,0.4-2H17v8.1c0,1,0.8,1.9,1.9,1.9h12.1
				c1,0,1.9-0.8,1.9-1.9v-8.1h-2.9C30.1,23.5,30.2,24.2,30.2,24.9z"/>
		</g>
	</g>
</g>
</svg>
