<?xml version="1.0" encoding="utf-8"?>
<!-- Generator: Adobe Illustrator 22.1.0, SVG Export Plug-In . SVG Version: 6.00 Build 0)  -->
<svg version="1.1" id="Capa_1" xmlns="http://www.w3.org/2000/svg" xmlns:xlink="http://www.w3.org/1999/xlink" x="0px" y="0px"
	 viewBox="0 0 92 102" style="enable-background:new 0 0 92 102;" xml:space="preserve">
<style type="text/css">
	.st0{fill:#A0A0A0;}
</style>
<path class="st0" d="M54.3,65h-24c-0.9,0-1.6-0.7-1.6-1.6V34c0-0.9,0.7-1.6,1.6-1.6h24c0.9,0,1.6,0.7,1.6,1.6v29.3
	C55.9,64.3,55.2,65,54.3,65z M30.3,33.2c-0.4,0-0.8,0.3-0.8,0.8v29.3c0,0.4,0.3,0.8,0.8,0.8h24c0.4,0,0.8-0.3,0.8-0.8V34
	c0-0.4-0.3-0.8-0.8-0.8H30.3z"/>
<path class="st0" d="M55.5,38.4H29.1c-0.3,0-0.4-0.2-0.4-0.4c0-0.3,0.2-0.4,0.4-0.4h26.4c0.3,0,0.4,0.2,0.4,0.4
	C55.9,38.2,55.7,38.4,55.5,38.4z"/>
<path class="st0" d="M46.8,52.8H31.5c-0.3,0-0.4-0.2-0.4-0.4c0-0.3,0.2-0.4,0.4-0.4h15.3c0.3,0,0.4,0.2,0.4,0.4
	C47.2,52.6,47.1,52.8,46.8,52.8z"/>
<path class="st0" d="M46.8,56.1H31.5c-0.3,0-0.4-0.2-0.4-0.4c0-0.3,0.2-0.4,0.4-0.4h15.3c0.3,0,0.4,0.2,0.4,0.4
	C47.2,56,47.1,56.1,46.8,56.1z"/>
<path class="st0" d="M46.8,59H31.5c-0.3,0-0.4-0.2-0.4-0.4s0.2-0.4,0.4-0.4h15.3c0.3,0,0.4,0.2,0.4,0.4S47.1,59,46.8,59z"/>
<path class="st0" d="M42.3,49.5H31.5c-0.3,0-0.4-0.2-0.4-0.4v-7.5c0-0.3,0.2-0.4,0.4-0.4h10.8c0.3,0,0.4,0.2,0.4,0.4V49
	C42.7,49.3,42.6,49.5,42.3,49.5z M32,48.6h9.9v-6.7H32V48.6z"/>
<path class="st0" d="M35.4,35.5h-3.9c-0.3,0-0.4-0.2-0.4-0.4s0.2-0.4,0.4-0.4h3.9c0.3,0,0.4,0.2,0.4,0.4S35.7,35.5,35.4,35.5z"/>
<path class="st0" d="M50.2,35.5h-1.6c-0.3,0-0.4-0.2-0.4-0.4s0.2-0.4,0.4-0.4h1.6c0.3,0,0.4,0.2,0.4,0.4S50.5,35.5,50.2,35.5z"/>
<path class="st0" d="M52.9,35.5h-1.6c-0.3,0-0.4-0.2-0.4-0.4s0.2-0.4,0.4-0.4h1.6c0.3,0,0.4,0.2,0.4,0.4S53.1,35.5,52.9,35.5z"/>
</svg>
