<?xml version="1.0" encoding="utf-8"?>
<!-- Generator: Adobe Illustrator 21.0.1, SVG Export Plug-In . SVG Version: 6.00 Build 0)  -->
<svg version="1.1" id="Слой_1" xmlns="http://www.w3.org/2000/svg" xmlns:xlink="http://www.w3.org/1999/xlink" x="0px" y="0px"
	 viewBox="0 0 27.2 32.6" style="enable-background:new 0 0 27.2 32.6;" xml:space="preserve">
<style type="text/css">
	.st0{fill:#A0A0A0;}
</style>
<g>
	<path class="st0" d="M25.6,0h-24C0.7,0,0,0.7,0,1.6V31c0,0.9,0.7,1.6,1.6,1.6h24c0.9,0,1.6-0.7,1.6-1.7V1.6C27.2,0.7,26.5,0,25.6,0
		z M1.6,0.8h24c0.5,0,0.8,0.4,0.8,0.8v3.6H0.8V1.6C0.8,1.1,1.2,0.8,1.6,0.8z M25.6,31.7h-24c-0.5,0-0.8-0.4-0.8-0.8V6h25.6v24.9
		C26.4,31.4,26,31.7,25.6,31.7z"/>
	<path class="st0" d="M18.1,19.6H2.8c-0.2,0-0.4,0.1-0.4,0.4c0,0.2,0.1,0.4,0.4,0.4h15.3c0.3,0,0.4-0.2,0.4-0.4
		C18.5,19.8,18.4,19.6,18.1,19.6z"/>
	<path class="st0" d="M18.1,22.9H2.8c-0.2,0-0.4,0.1-0.4,0.4c0,0.2,0.1,0.4,0.4,0.4h15.3c0.3,0,0.4-0.1,0.4-0.4
		C18.5,23.1,18.4,22.9,18.1,22.9z"/>
	<path class="st0" d="M18.1,25.8H2.8c-0.2,0-0.4,0.2-0.4,0.4s0.1,0.4,0.4,0.4h15.3c0.3,0,0.4-0.2,0.4-0.4S18.4,25.8,18.1,25.8z"/>
	<path class="st0" d="M2.8,17.1h10.8c0.3,0,0.4-0.2,0.4-0.5V9.2c0-0.2-0.1-0.4-0.4-0.4H2.8c-0.2,0-0.4,0.1-0.4,0.4v7.5
		C2.4,16.9,2.5,17.1,2.8,17.1z M3.3,9.5h9.9v6.7H3.3V9.5z"/>
	<path class="st0" d="M2.8,3.1h3.9c0.3,0,0.4-0.2,0.4-0.4S7,2.3,6.7,2.3H2.8c-0.2,0-0.4,0.2-0.4,0.4S2.5,3.1,2.8,3.1z"/>
	<path class="st0" d="M19.9,3.1h1.6c0.3,0,0.4-0.2,0.4-0.4s-0.1-0.4-0.4-0.4h-1.6c-0.2,0-0.4,0.2-0.4,0.4S19.6,3.1,19.9,3.1z"/>
	<path class="st0" d="M22.6,3.1h1.6c0.2,0,0.4-0.2,0.4-0.4s-0.1-0.4-0.4-0.4h-1.6c-0.2,0-0.4,0.2-0.4,0.4S22.3,3.1,22.6,3.1z"/>
</g>
</svg>
