<?xml version="1.0" encoding="utf-8"?>
<!-- Generator: Adobe Illustrator 21.0.1, SVG Export Plug-In . SVG Version: 6.00 Build 0)  -->
<svg version="1.1" id="Capa_1" xmlns="http://www.w3.org/2000/svg" xmlns:xlink="http://www.w3.org/1999/xlink" x="0px" y="0px"
	 viewBox="0 0 23.3 19.9" style="enable-background:new 0 0 23.3 19.9;" xml:space="preserve">
<style type="text/css">
	.st0{fill:#ADB8C1;}
</style>
<g>
	<g>
		<path class="st0" d="M20.8,11.5L20.8,11.5L20.8,11.5L20.8,11.5c-2.1,1.6-4.9,1.8-7.1,0.5c-0.1-0.1-0.3-0.1-0.4,0l-1.5,1.2
			c-0.1,0.1-0.1,0.2-0.1,0.3l-0.2,1.7l-1.7-0.2c-0.1,0-0.2,0-0.3,0.1l-0.5,0.4c-0.1,0.1-0.1,0.2-0.1,0.3l-0.2,1.7l0,0l0,0l-0.4,0
			l-1.3-0.2c-0.1,0-0.2,0-0.3,0.1L6,17.6c-0.1,0.1-0.1,0.2-0.1,0.3l-0.2,1.7L4,19.3c-0.1,0-0.2,0-0.3,0.1l-0.1,0.1
			c-1,0.7-2.4,0.6-3.1-0.4c-0.7-1-0.6-2.4,0.4-3.1l9.7-7.4c0.1-0.1,0.2-0.3,0.1-0.4C10,5.5,11,2.9,13,1.3c2.8-2.2,6.9-1.6,9,1.2
			c1,1.4,1.5,3,1.3,4.7C23.1,9,22.2,10.5,20.8,11.5z M11.3,12.6l1.5-1.2c0.4-0.3,0.9-0.3,1.3-0.1c2,1.1,4.4,1,6.2-0.4l0,0
			c1.2-0.9,2-2.2,2.2-3.7c0.2-1.5-0.2-3-1.1-4.2C19.5,0.5,16,0,13.5,1.9c-1.8,1.4-2.6,3.7-2,5.9c0.1,0.5,0,0.9-0.4,1.2l-9.7,7.4
			c-0.6,0.5-0.8,1.4-0.3,2c0.5,0.6,1.4,0.8,2,0.3l0.1-0.1c0.2-0.2,0.6-0.3,0.9-0.2L5,18.7l0.1-0.9c0-0.3,0.2-0.6,0.4-0.8l0.5-0.4
			c0.2-0.2,0.6-0.3,0.9-0.2l0.9,0.1L8,15.5c0-0.3,0.2-0.6,0.4-0.8l0.5-0.4c0.2-0.2,0.6-0.3,0.9-0.2l0.9,0.1l0.1-0.9
			C10.9,13,11,12.8,11.3,12.6z M20.2,6.4c-0.8,0.6-2,0.5-2.7-0.4c-0.6-0.8-0.5-2,0.4-2.7c0.8-0.6,2-0.5,2.7,0.4S21,5.7,20.2,6.4z
			 M18.3,3.9c-0.5,0.4-0.6,1.1-0.2,1.6c0.4,0.5,1.1,0.6,1.6,0.2c0.5-0.4,0.6-1.1,0.2-1.6C19.5,3.6,18.8,3.5,18.3,3.9z"/>
	</g>
</g>
</svg>
