<?xml version="1.0" encoding="utf-8"?>
<!-- Generator: Adobe Illustrator 22.1.0, SVG Export Plug-In . SVG Version: 6.00 Build 0)  -->
<svg version="1.1" id="Capa_1" xmlns="http://www.w3.org/2000/svg" xmlns:xlink="http://www.w3.org/1999/xlink" x="0px" y="0px"
	 viewBox="0 0 25 22" style="enable-background:new 0 0 25 22;" xml:space="preserve">
<style type="text/css">
	.st0{fill:#ADB8C1;}
</style>
<g>
	<path class="st0" d="M18.7,4.9c-0.8,0.6-1,1.9-0.3,2.7c0.6,0.8,1.9,1,2.7,0.3c0.8-0.6,1-1.9,0.3-2.7C20.8,4.4,19.6,4.2,18.7,4.9z
		 M20.6,7.3c-0.5,0.4-1.2,0.3-1.6-0.2c-0.4-0.5-0.3-1.2,0.2-1.6c0.5-0.4,1.2-0.3,1.6,0.2C21.2,6.2,21.1,6.9,20.6,7.3z"/>
	<path class="st0" d="M22.9,4.1c-2.2-2.8-6.2-3.3-9-1.2c-2.1,1.6-3,4.2-2.3,6.8c0,0.2,0,0.3-0.1,0.4l-9.7,7.5
		c-1,0.8-1.2,2.2-0.4,3.1c0.8,1,2.2,1.2,3.1,0.4l0.1-0.1C4.7,21,4.8,21,4.9,21l1.7,0.2l0.2-1.7c0-0.1,0.1-0.2,0.1-0.3l0.5-0.4
		c0.1-0.1,0.2-0.1,0.3-0.1L9,18.9l0.4,0l0,0l0,0l0.2-1.7c0-0.1,0.1-0.2,0.1-0.3l0.5-0.4c0.1-0.1,0.2-0.1,0.3-0.1l1.7,0.2l0.2-1.7
		c0-0.1,0.1-0.2,0.1-0.3l1.5-1.2c0.1-0.1,0.3-0.1,0.4,0c2.3,1.3,5.1,1.1,7.1-0.5c1.4-1,2.2-2.6,2.4-4.3C24.4,7.1,24,5.4,22.9,4.1z
		 M23.4,8.7c-0.2,1.5-1,2.8-2.2,3.8l0,0c-1.8,1.4-4.3,1.6-6.3,0.4c-0.4-0.2-0.9-0.2-1.3,0.1l-1.5,1.2c-0.2,0.2-0.4,0.5-0.4,0.8
		l-0.1,0.9l-0.9-0.1c-0.3,0-0.6,0-0.9,0.2l-0.5,0.4c-0.2,0.2-0.4,0.5-0.4,0.8l-0.1,0.9L7.8,18c-0.3,0-0.6,0-0.9,0.2l-0.5,0.4
		C6.2,18.8,6,19.1,6,19.4l-0.1,0.9L5,20.2c-0.3,0-0.6,0-0.9,0.2L4,20.5C3.4,21,2.5,20.9,2,20.2c-0.5-0.6-0.4-1.6,0.3-2.1l9.7-7.5
		c0.4-0.3,0.5-0.8,0.4-1.2c-0.6-2.2,0.2-4.5,2-5.9c2.5-1.9,6-1.4,7.9,1C23.2,5.7,23.6,7.2,23.4,8.7z"/>
</g>
</svg>
