<svg version="1.1" xmlns="http://www.w3.org/2000/svg" xmlns:xlink="http://www.w3.org/1999/xlink" x="0px" y="0px" viewBox="0 0 42.1 70.8"
	 style="enable-background:new 0 0 42.1 70.8;" xml:space="preserve">
	<path class="st0" d="M29.6,39.9l-0.1-0.1L22,14.5c1.1-0.4,1.8-1.4,1.8-2.6c0-1.5-1.3-2.8-2.8-2.8s-2.8,1.3-2.8,2.8
		c0,1.1,0.7,2.1,1.7,2.6L3.8,70.8l34.7-0.1l-9-30.7L29.6,39.9z M16.5,29.9L17,28l6.7-3.9L28,38.8L16.5,29.9z M28.5,40.4l1,3.4
		L6.9,63.3L16.2,31L28.5,40.4z M21,14.7l2.4,8.3l-5.9,3.6l3.4-11.9C20.9,14.7,20.9,14.7,21,14.7z M5.1,69.7l1.4-4.9l0.1,0.1
		l23.3-20l7.3,24.7L5.1,69.7z"/>
	<path class="st0" d="M7.7,20.9l0.7-0.7c-2-2.3-3-5.1-3-8.1c0-3.2,1.1-6.2,3.4-8.5L8.1,2.9c-2.4,2.5-3.7,5.7-3.7,9.2
		C4.4,15.4,5.5,18.5,7.7,20.9z"/>
	<path class="st0" d="M4.9,22.9c-2.6-3-4-6.9-4-10.8c0-4.3,1.7-8.3,4.7-11.4L4.9,0C1.8,3.3,0,7.5,0,12.1c0,4.3,1.5,8.3,4.3,11.5
		L4.9,22.9z"/>
	<path class="st0" d="M10.5,17.8l0.7-0.7C10,15.7,9.3,13.9,9.3,12c0-2.1,0.8-4,2.2-5.4l-0.7-0.7C9.1,7.6,8.3,9.7,8.3,12
		C8.3,14.2,9.1,16.2,10.5,17.8z"/>
	<path class="st0" d="M14,14.8C13.4,14,13,13,13,12s0.4-2.1,1.1-2.9l-0.7-0.7C12.5,9.3,12,10.7,12,12c0,1.2,0.5,2.5,1.3,3.4
		L14,14.8z"/>
	<path class="st0" d="M33.8,20.2l0.8,0.7c2.2-2.5,3.3-5.6,3.2-8.8c0-3.4-1.3-6.7-3.7-9.2l-0.7,0.7c2.2,2.3,3.4,5.3,3.4,8.5
		C36.8,15.1,35.8,17.9,33.8,20.2z"/>
	<path class="st0" d="M37.2,22.9l0.8,0.7c2.7-3.1,4.3-7.1,4.1-11.5c0-4.5-1.7-8.9-4.9-12.1l-0.7,0.7c3,3.1,4.7,7.2,4.7,11.4
		C41.2,16.1,39.8,19.9,37.2,22.9z"/>
	<path class="st0" d="M31,17.1l0.8,0.7c1.5-1.5,2.2-3.6,2.1-5.8c0-2.3-0.9-4.4-2.5-6.1l-0.7,0.7c1.5,1.5,2.2,3.3,2.2,5.4
		C32.9,13.9,32.2,15.7,31,17.1z"/>
	<path class="st0" d="M28.2,14.7l0.8,0.7c0.8-0.9,1.3-2.1,1.2-3.5c0-1.3-0.5-2.7-1.4-3.6L28.1,9c0.7,0.7,1.1,1.8,1.1,2.9
		C29.2,12.9,28.8,14,28.2,14.7z"/>
</svg>
