<svg version="1.1" xmlns="http://www.w3.org/2000/svg" x="0px" y="0px" viewBox="0 0 56.8 71"
	 style="enable-background:new 0 0 56.8 71;" xml:space="preserve">
	<polygon class="st0" points="36.9,13.9 36.9,4.5 4.9,4.5 4.9,56.9 36.9,56.9 36.9,47.9 35.8,47.9 35.8,55.7 6.1,55.7 6.1,5.7 
		35.8,5.7 35.8,13.9 			"/>
	<path class="st0" d="M40.5,67.1c0,1.5-1.2,2.7-2.7,2.7H3.9c-1.5,0-2.7-1.2-2.7-2.7V3.9c0-1.5,1.2-2.7,2.7-2.7h33.9
		c1.5,0,2.7,1.2,2.7,2.7V14h1.2V3.9c0-2.1-1.8-3.9-3.9-3.9H3.9C1.8,0,0,1.8,0,3.9v63.2C0,69.2,1.8,71,3.9,71h33.9
		c2.1,0,3.9-1.8,3.9-3.9v-19h-1.2V67.1z"/>
	<path class="st0" d="M27.3,15.2L14.5,27.6v18.6h42.3v-31H27.3z M55.8,45h-40l0.1-16.8L28,16.5h27.8V45z"/>
	<path class="st0" d="M16.7,63.4c0,2.4,1.9,4.3,4.3,4.3c2.3,0,4.2-1.9,4.3-4.3c0-2.4-1.9-4.3-4.3-4.3C18.6,59.1,16.7,61,16.7,63.4
		z M24.1,63.4c0,1.7-1.4,3.1-3.1,3.1s-3.1-1.4-3.1-3.1s1.4-3.1,3.1-3.1S24.1,61.7,24.1,63.4z"/>
	<path class="st0" d="M36.4,40.7c2.2,0,4.4-1.2,5.9-3c1.7-2.1,2.3-4.6,1.7-7.1c-1.6-6.5-4.2-9.8-7.6-9.8c-3.3,0-6.1,3.5-7.6,9.8
		c-0.6,2.5-0.1,5.2,1.4,7.1C31.7,39.6,33.9,40.7,36.4,40.7z M30,30.9c1.3-5.7,3.7-8.9,6.4-8.9c2.8,0,5,3,6.4,9
		c0.5,2.1,0,4.2-1.4,6c-1.3,1.7-3.1,2.6-5,2.6c-2.1,0-4-1-5.2-2.5C29.9,35.4,29.4,33.1,30,30.9z"/>
</svg>
