<?xml version="1.0" encoding="utf-8"?>
<!-- Generator: Adobe Illustrator 22.0.1, SVG Export Plug-In . SVG Version: 6.00 Build 0)  -->
<svg version="1.1" id="mobile" xmlns="http://www.w3.org/2000/svg" xmlns:xlink="http://www.w3.org/1999/xlink" x="0px" y="0px"
	 viewBox="0 0 60 40" style="enable-background:new 0 0 60 40;" xml:space="preserve">
<style type="text/css">
	.st0{fill:#878787;}
</style>
<g>
	<path class="st0" d="M28.5205193,40.2157288L10.8129997,22.5082092L31.2348232,1.1013216h9.4213886l2.1464844,2.1464844
		c0.1953125,0.1953125,0.1953125,0.5117188,0,0.7070312s-0.5117188,0.1953125-0.7070312,0l-1.8535156-1.8535156h-8.5786152
		L12.2104607,22.4916077l16.2924805,16.2924805l19.4060974-20.484375V9.7069397l-0.8535156-0.8535156
		c-0.1953125-0.1953125-0.1953125-0.5117188,0-0.7070312s0.5117188-0.1953125,0.7070312,0l1.1348801,1.143486v9.4072266
		L28.5205193,40.2157288z"/>
</g>
<g>
	<path class="st0" d="M39.5009956,13.9999084c-1.9296875,0-3.5-1.5703125-3.5-3.5s1.5703125-3.5,3.5-3.5s3.5,1.5703125,3.5,3.5
		S41.4306831,13.9999084,39.5009956,13.9999084z M39.5009956,7.9999084c-1.378418,0-2.5,1.121582-2.5,2.5s1.121582,2.5,2.5,2.5
		s2.5-1.121582,2.5-2.5S40.8794136,7.9999084,39.5009956,7.9999084z"/>
</g>
<g>
	<path class="st0" d="M27.2871284,29.2035217c-0.0258789,0-0.0517578-0.0019531-0.078125-0.0063477
		c-0.2138672-0.0336914-0.3818359-0.2016602-0.4155273-0.4155273l-0.6938477-4.3803711l-4.3803711-0.6938477
		c-0.2138672-0.0336914-0.3818359-0.2016602-0.4155273-0.4155273c-0.0341797-0.2138672,0.0737305-0.425293,0.2666016-0.5234375
		l3.9516602-2.0136719l-0.6933594-4.3798828c-0.0341797-0.2138672,0.0737305-0.425293,0.2666016-0.5234375
		c0.1938477-0.0991211,0.4267578-0.0615234,0.5805664,0.0917969l3.1357422,3.1357422l3.9511719-2.0131836
		c0.1933594-0.0981445,0.4272461-0.0615234,0.5805664,0.0917969s0.1904297,0.3876953,0.0917969,0.5805664l-2.0131836,3.9511719
		l3.1362305,3.1362305c0.1533203,0.1533203,0.1904297,0.3876953,0.0917969,0.5805664
		c-0.0981445,0.1928711-0.3120117,0.300293-0.5234375,0.2666016l-4.3803711-0.6938477l-2.0136719,3.9516602
		C27.6465034,29.1000061,27.4731636,29.2035217,27.2871284,29.2035217z M23.3955269,22.9608459l3.2192383,0.5097656
		c0.2138672,0.0336914,0.3818359,0.2016602,0.4155273,0.4155273l0.5097656,3.2192383l1.4799805-2.9042969
		c0.0976562-0.1928711,0.3081055-0.3056641,0.5234375-0.2666016l3.2192383,0.5097656l-2.3046875-2.3046875
		c-0.1533203-0.1533203-0.1904297-0.3876953-0.0917969-0.5805664l1.4794922-2.9038086l-2.9038086,1.4794922
		c-0.1938477,0.1000977-0.4267578,0.0610352-0.5805664-0.0917969l-2.3046875-2.3046875l0.5097656,3.2192383
		c0.0341797,0.2138672-0.0737305,0.425293-0.2666016,0.5234375L23.3955269,22.9608459z"/>
</g>
<g>
	<path class="st0" d="M40.0854683,10.9999084c-0.5854492,0-1.0703125-0.1762695-1.4204102-0.5268555
		c-0.1953125-0.1953125-0.1953125-0.512207,0-0.7070312c0.1953125-0.1953125,0.5117188-0.1953125,0.7070312,0
		c0.3149414,0.3149414,1.0131836,0.309082,1.8696289-0.0146484c1.0112305-0.3837891,2.1191406-1.1464844,3.1196289-2.1464844
		c1-1.0004883,1.7626953-2.1083984,2.1464844-3.1196289c0.3242188-0.8554688,0.3300781-1.5546875,0.0146484-1.8696289
		c-0.315918-0.315918-1.0151367-0.3100586-1.8701172,0.0141602c-0.2563477,0.1005859-0.546875-0.0317383-0.6445312-0.2900391
		c-0.0981445-0.2583008,0.0317383-0.546875,0.2900391-0.6445312c1.2695312-0.4824219,2.3120117-0.4067383,2.9316406,0.2133789
		c0.6196289,0.6191406,0.6953125,1.6601562,0.2128906,2.9311523c-0.4326172,1.1411133-1.2758789,2.3740234-2.3740234,3.472168
		s-2.3310547,1.9414062-3.472168,2.3740234C41.0439644,10.8959045,40.5351753,10.9999084,40.0854683,10.9999084z"/>
</g>
</svg>
