<?xml version="1.0" encoding="utf-8"?>
<!-- Generator: Adobe Illustrator 22.0.1, SVG Export Plug-In . SVG Version: 6.00 Build 0)  -->
<svg version="1.1" id="Layer_1" xmlns="http://www.w3.org/2000/svg" xmlns:xlink="http://www.w3.org/1999/xlink" x="0px" y="0px"
	 viewBox="0 0 60 40" style="enable-background:new 0 0 60 40;" xml:space="preserve">
<style type="text/css">
	.st0{fill:#808080;}
</style>
<g>
	<path class="st0" d="M20.5107422,38.8085938c-1.8310547,0-3.3212891-1.4907227-3.3212891-3.3227539
		c0-1.831543,1.4902344-3.3217773,3.3212891-3.3217773c1.8320312,0,3.3222656,1.4902344,3.3222656,3.3217773
		C23.8330078,37.3178711,22.3427734,38.8085938,20.5107422,38.8085938z M20.5107422,33.1640625
		c-1.2802734,0-2.3212891,1.0415039-2.3212891,2.3217773c0,1.2807617,1.0410156,2.3227539,2.3212891,2.3227539
		s2.3222656-1.0419922,2.3222656-2.3227539C22.8330078,34.2055664,21.7910156,33.1640625,20.5107422,33.1640625z"/>
</g>
<g>
	<path class="st0" d="M41.5,38.8085938c-1.8310547,0-3.3212891-1.4907227-3.3212891-3.3227539
		c0-1.831543,1.4902344-3.3217773,3.3212891-3.3217773c1.8320312,0,3.3222656,1.4902344,3.3222656,3.3217773
		C44.8222656,37.3178711,43.3320312,38.8085938,41.5,38.8085938z M41.5,33.1640625
		c-1.2802734,0-2.3212891,1.0415039-2.3212891,2.3217773c0,1.2807617,1.0410156,2.3227539,2.3212891,2.3227539
		s2.3222656-1.0419922,2.3222656-2.3227539C43.8222656,34.2055664,42.7802734,33.1640625,41.5,33.1640625z"/>
</g>
<path class="st0" d="M16.9936523,23.8842773h27.1100883c1.546875,0,2.8613281-1.1552734,3.0605469-2.7504883l0.0249023-11.5112305
	L18.1367188,5.2641602c-0.2597656-0.0395508-0.5273438,0.1464844-0.5683594,0.4199219
	c-0.0410156,0.2729492,0.1464844,0.527832,0.4199219,0.5693359l28.2009087,4.2294922l-0.0209961,10.5874023
	c-0.1318359,1.0341797-1.0195312,1.8139648-2.0644531,1.8139648H16.9936523c-1.0439453,0-1.9001379-0.7855835-2.0290442-1.7562866
	v-0.6704102l0,0L14.9331446,5.3940125c0-2.3500977-1.9018641-4.262207-4.25245-4.262207H7.4726868
	c-0.2763672,0-0.5,0.2236328-0.5,0.5s0.2236328,0.4945068,0.5,0.4945068h3.2080078
	c1.7998047,0,3.2636719,1.4688721,3.2636719,3.2677002l0.0351868,15.0635681h-0.0037231l-0.0048828,5.7529297
	c0.1972656,1.5322266,1.4680176,2.6932983,3.013916,2.6932983h28.8457031c0.2763672,0,0.5-0.2236328,0.5-0.5s-0.2236328-0.5-0.5-0.5
	H16.9848633c-1.0439453,0-1.9001379-0.7860718-2.0290442-1.7567749l0.0087891-3.0402832
	C15.5008631,23.5914917,16.2180176,23.8842773,16.9936523,23.8842773z"/>
</svg>
