<?xml version="1.0" encoding="utf-8"?>
<!-- Generator: Adobe Illustrator 22.0.1, SVG Export Plug-In . SVG Version: 6.00 Build 0)  -->
<svg version="1.1" id="Layer_1" xmlns="http://www.w3.org/2000/svg" xmlns:xlink="http://www.w3.org/1999/xlink" x="0px" y="0px"
	 viewBox="0 0 60 40" style="enable-background:new 0 0 60 40;" xml:space="preserve">
<style type="text/css">
	.st0{fill:#808080;}
</style>
<path class="st0" d="M30,40c-11.027832,0-20-8.972168-20-20S18.972168,0,30,0s20,8.972168,20,20S41.027832,40,30,40z M30,1
	C19.5234375,1,11,9.5234375,11,20s8.5234375,19,19,19s19-8.5234375,19-19S40.4765625,1,30,1z"/>
<path class="st0" d="M27.3358536,31.4149189l2.3952579-13.6037674h-2.3068466l0.2361526-1.3604946h3.992485l-2.6314106,14.964262
	H27.3358536z M30.2045803,11.630475c0-0.8579426,0.6200447-1.4494867,1.359911-1.4494867
	c0.7689476,0,1.2714996,0.5915442,1.2714996,1.2715006c0,0.8876066-0.5909615,1.4791508-1.359911,1.4791508
	C30.7362137,12.9316397,30.2045803,12.3400955,30.2045803,11.630475z"/>
</svg>
