<?xml version="1.0" encoding="utf-8"?>
<!-- Generator: Adobe Illustrator 22.0.1, SVG Export Plug-In . SVG Version: 6.00 Build 0)  -->
<svg version="1.1" id="Layer_1" xmlns="http://www.w3.org/2000/svg" xmlns:xlink="http://www.w3.org/1999/xlink" x="0px" y="0px"
	 viewBox="0 0 60 40" style="enable-background:new 0 0 60 40;" xml:space="preserve">
<style type="text/css">
	.st0{fill:#808080;}
</style>
<g>
	<path class="st0" d="M41.2710533,40H21.5519466c-2.0078125,0-3.6416016-1.6328125-3.6416016-3.6396484V3.6379488
		c0-2.0078125,1.6337891-3.6411133,3.6416016-3.6411133h19.7191067c2.0087891,0,3.6425781,1.6333008,3.6425781,3.6411133v32.7224045
		C44.9136314,38.3671875,43.2798424,40,41.2710533,40z M21.5464134,0.9968355c-1.456543,0-2.6416016,1.1845703-2.6416016,2.6411133
		v32.7224045C18.9048119,37.8154297,20.0898705,39,21.5464134,39h19.7295837c1.4570312,0,2.6425781-1.1845703,2.6425781-2.6396484
		V3.6379488c0-1.456543-1.1855469-2.6411133-2.6425781-2.6411133C41.2759972,0.9968354,21.5464134,0.9968354,21.5464134,0.9968355z"
		/>
</g>
<g>
	<path class="st0" d="M23.5615234,10.8671875c-0.1279297,0-0.2558594-0.0488281-0.3535156-0.1464844
		c-0.1953125-0.1953125-0.1953125-0.5117188,0-0.7070312l4.668457-4.668457c0.1953125-0.1953125,0.5117188-0.1953125,0.7070312,0
		s0.1953125,0.5117188,0,0.7070312l-4.668457,4.668457C23.8173828,10.8183594,23.6894531,10.8671875,23.5615234,10.8671875z"/>
</g>
<g>
	<path class="st0" d="M24.2133789,16.1743164c-0.1279297,0-0.2558594-0.0488281-0.3535156-0.1464844
		c-0.1953125-0.1953125-0.1953125-0.5117188,0-0.7070312l9.3237305-9.3237305c0.1953125-0.1953125,0.5117188-0.1953125,0.7070312,0
		s0.1953125,0.5117188,0,0.7070312l-9.3237305,9.3237305C24.4692383,16.1254883,24.3413086,16.1743164,24.2133789,16.1743164z"/>
</g>
<g>
	<path class="st0" d="M30.9873047,35.1982422c-1.2128906,0-2.1992188-0.9863281-2.1992188-2.1992188
		s0.9863281-2.1992188,2.1992188-2.1992188c1.2119141,0,2.1982422,0.9863281,2.1982422,2.1992188
		S32.1992188,35.1982422,30.9873047,35.1982422z M30.9873047,31.7998047c-0.6611328,0-1.1992188,0.5380859-1.1992188,1.1992188
		s0.5380859,1.1992188,1.1992188,1.1992188c0.6606445,0,1.1982422-0.5380859,1.1982422-1.1992188
		S31.6479492,31.7998047,30.9873047,31.7998047z"/>
</g>
</svg>
