<?xml version="1.0" encoding="utf-8"?>
<!-- Generator: Adobe Illustrator 21.0.1, SVG Export Plug-In . SVG Version: 6.00 Build 0)  -->
<svg version="1.1" id="Layer_1" xmlns="http://www.w3.org/2000/svg" xmlns:xlink="http://www.w3.org/1999/xlink" x="0px" y="0px"
	 viewBox="0 0 25.1 34.7" style="enable-background:new 0 0 25.1 34.7;" xml:space="preserve">
<style type="text/css">
	.st0{fill:#ADB8C1;}
</style>
<g>
	<path class="st0" d="M7.7,34.7c-1.9,0-3.8-0.7-5.3-2.1c-0.2-0.2-0.3-0.3-0.5-0.5L1.8,32c-0.2-0.3-0.3-0.4-0.5-0.7
		c-1.5-2.2-1.7-5.4-0.5-7.8c1.1-2.1,3-3.5,5.2-4c2.2-0.5,4.5,0,6.4,1.4c0.2,0.1,0.3,0.2,0.4,0.4c0-3.9,0-7.9,0-11.8l0-6.8
		c0-1.5,0-2,0.3-2.3c0.5-0.5,1.4-0.1,2,0.2c0.1,0.1,0.2,0.1,0.3,0.1c1.1,0.5,2.2,1,3.3,1.5c1.1,0.5,2.3,1.1,3.4,1.6
		c0.6,0.3,1.1,0.5,1.7,0.8C24.4,4.8,25,5.3,25,6.4v6.2c0,0.5-0.1,0.8-0.4,1c-0.5,0.3-1,0-1.3-0.1c-0.8-0.4-1.7-0.8-2.6-1.2
		c-1.2-0.6-2.4-1.1-3.5-1.6L16,10c-0.2-0.1-0.4-0.2-0.5-0.2c0,0,0,0,0,0l0,16.1c0,1.1,0,2.2-0.3,3.3c-0.3,1.1-0.8,2-1.5,2.8
		c-0.1,0.1-0.1,0.2-0.2,0.2c-0.1,0.1-0.2,0.2-0.3,0.3c-0.5,0.4-1.4,1.1-1.9,1.4C10.2,34.4,8.9,34.7,7.7,34.7z M7.7,20.3
		c-0.5,0-1,0.1-1.5,0.2c-1.9,0.4-3.6,1.7-4.5,3.5c-1.1,2.1-0.9,4.9,0.4,6.8c0.2,0.3,0.3,0.4,0.5,0.6l0.2,0.2
		c0.1,0.1,0.2,0.3,0.4,0.4c1.3,1.2,2.9,1.8,4.6,1.8c1.1,0,2.2-0.3,3-0.7c0.5-0.2,1.3-0.8,1.7-1.2c0.1-0.1,0.1-0.2,0.2-0.3
		c0.1-0.1,0.1-0.2,0.2-0.3c0.6-0.7,1-1.5,1.3-2.4c0.3-0.9,0.3-1.9,0.3-3l0-0.6v-17l0.7,0.3c0.3,0.1,0.5,0.2,0.8,0.3
		C16,8.9,16.2,9,16.4,9.1l1.2,0.6c1.1,0.5,2.3,1.1,3.5,1.6c0.9,0.4,1.8,0.8,2.6,1.2c0.1,0.1,0.2,0.1,0.3,0.1c0,0,0,0,0-0.1V6.4
		c0-0.5-0.2-0.7-0.7-1c-0.5-0.3-1.1-0.5-1.7-0.8c-1.1-0.5-2.3-1-3.4-1.6C17.1,2.5,16,2,15,1.5c-0.1,0-0.2-0.1-0.3-0.2
		C14.5,1.3,14,1,13.8,1c0,0.3,0,1.2,0,1.5l0,0.3l0,6.5c0,4.3,0,8.7,0,13l0,1.2l-1.5-1.5c-0.2-0.2-0.3-0.3-0.6-0.5
		C10.6,20.8,9.2,20.3,7.7,20.3z"/>
</g>
</svg>
