<?xml version="1.0" encoding="utf-8"?>
<!-- Generator: Adobe Illustrator 22.1.0, SVG Export Plug-In . SVG Version: 6.00 Build 0)  -->
<svg version="1.1" id="Capa_1" xmlns="http://www.w3.org/2000/svg" xmlns:xlink="http://www.w3.org/1999/xlink" x="0px" y="0px"
	 viewBox="0 0 49 47" style="enable-background:new 0 0 49 47;" xml:space="preserve">
<style type="text/css">
	.st0{fill:#FFFFFF;}
</style>
<g>
	<g>
		<path class="st0" d="M23.9,22c1.6,0,2.9-1.3,2.9-2.9c0-1.6-1.3-2.9-2.9-2.9s-3,1.3-2.9,3C21,20.7,22.3,22,23.9,22z"/>
		<path class="st0" d="M23.9,7.8c-9.4,0-17.1,7.7-17.1,17.1S14.5,42,23.9,42S41,34.3,41,24.9S33.3,7.8,23.9,7.8z M23.9,13
			c3.3,0,6,2.7,6,6.1c0,3.3-2.7,5.9-6,5.9c-3.3,0-6-2.7-6-6C17.9,15.7,20.6,13,23.9,13z M30.6,27.4c-0.7,0.8-1.6,1.3-2.6,1.7
			c-0.9,0.3-2,0.5-3,0.7c0.1,0.2,0.2,0.2,0.3,0.3c1.4,1.4,2.8,2.8,4.1,4.1c0.5,0.5,0.6,1,0.3,1.6c-0.3,0.6-0.9,1-1.5,0.9
			c-0.4,0-0.7-0.2-1-0.5c-1-1-2.1-2.1-3.1-3.1c-0.3-0.3-0.4-0.2-0.7,0c-1,1.1-2.1,2.1-3.1,3.2c-0.5,0.5-1,0.6-1.6,0.3
			c-0.6-0.3-1-0.9-0.9-1.5c0-0.4,0.2-0.7,0.5-1c1.4-1.4,2.7-2.7,4.1-4.1c0.1-0.1,0.2-0.2,0.3-0.3c-1.9-0.2-3.5-0.6-4.9-1.7
			c-0.2-0.1-0.3-0.3-0.5-0.4c-0.6-0.6-0.7-1.3-0.2-2c0.4-0.6,1.1-0.8,1.9-0.4c0.1,0.1,0.3,0.1,0.4,0.2c2.7,1.8,6.3,1.9,8.9,0.1
			c0.3-0.2,0.6-0.3,0.9-0.5c0.6-0.2,1.2,0.1,1.6,0.6C31.1,26.3,31.1,26.9,30.6,27.4z"/>
	</g>
</g>
</svg>
