<?xml version="1.0" encoding="utf-8"?>
<!-- Generator: Adobe Illustrator 21.0.1, SVG Export Plug-In . SVG Version: 6.00 Build 0)  -->
<svg version="1.1" id="Layer_1" xmlns="http://www.w3.org/2000/svg" xmlns:xlink="http://www.w3.org/1999/xlink" x="0px" y="0px"
	 viewBox="0 0 51 33.8" style="enable-background:new 0 0 51 33.8;" xml:space="preserve">
<style type="text/css">
	.st0{fill:#ADB8C1;}
</style>
<g>
	<path class="st0" d="M48.9,0H2.1C1,0,0,1,0,2.1v29.6c0,1.1,1,2.1,2.1,2.1h46.7c1.1,0,2.1-1,2.1-2.1V2.1C51.1,1,50.1,0,48.9,0z
		 M50.3,31.7c0,0.8-0.6,1.3-1.3,1.3H2.1c-0.7,0-1.3-0.6-1.3-1.3V2.1c0-0.7,0.6-1.3,1.3-1.3h46.7c0.7,0,1.3,0.6,1.3,1.3L50.3,31.7
		L50.3,31.7z"/>
	<path class="st0" d="M7,30.3h40.5V3.5H7C7,3.5,7,30.3,7,30.3z M7.8,4.2h39v25.3h-39V4.2z"/>
	<path class="st0" d="M4,15.1c-1,0-1.8,0.8-1.8,1.8s0.8,1.8,1.8,1.8s1.8-0.8,1.8-1.8S4.9,15.1,4,15.1z M4,18c-0.6,0-1.1-0.4-1.1-1.1
		c0-0.6,0.4-1.1,1.1-1.1s1,0.4,1,1.1C4.9,17.5,4.5,18,4,18z"/>
	<path class="st0" d="M31.6,15.9l-6.9-5.5c-0.2-0.2-0.4-0.3-0.5-0.3c-0.4,0-0.7,0.3-0.7,0.8v11.4c0,0.5,0.4,0.8,0.7,0.8
		c0.2,0,0.4-0.1,0.5-0.3l6.9-5.5c0.3-0.2,0.4-0.5,0.4-0.8C32,16.5,31.9,16.1,31.6,15.9z M31.2,16.9l-6.9,5.5V11l6.9,5.5
		c0.1,0.1,0.1,0.1,0.1,0.2C31.3,16.8,31.2,16.9,31.2,16.9z"/>
</g>
</svg>
