<?xml version="1.0" encoding="utf-8"?>
<!-- Generator: Adobe Illustrator 21.0.1, SVG Export Plug-In . SVG Version: 6.00 Build 0)  -->
<svg version="1.1" id="Layer_1" xmlns="http://www.w3.org/2000/svg" xmlns:xlink="http://www.w3.org/1999/xlink" x="0px" y="0px"
	 viewBox="0 0 29.3 33.8" style="enable-background:new 0 0 29.3 33.8;" xml:space="preserve">
<style type="text/css">
	.st0{fill:#ADB8C1;}
</style>
<path class="st0" d="M0,8.4c0,2,0.6,3.7,1.8,5s2.7,1.9,4.4,1.9s3.2-0.7,4.3-1.9c1.2-1.3,1.7-2.9,1.7-4.8V6.9c0-2-0.6-3.6-1.7-5
	C9.3,0.7,7.9,0,6.2,0C4.4,0,3,0.7,1.8,1.9C0.7,3.2,0,4.8,0,6.8L0,8.4L0,8.4z M1.2,7c0-1.7,0.5-3.1,1.4-4.2c0.9-1,2.1-1.5,3.5-1.5
	c1.4,0,2.6,0.5,3.5,1.5c0.9,1,1.4,2.4,1.4,4v1.6c0,1.7-0.4,3-1.3,4.1c-0.9,1-2.1,1.5-3.5,1.5c-1.5,0-2.7-0.5-3.6-1.6
	s-1.4-2.4-1.4-3.9L1.2,7L1.2,7z M17,26.9c0,2,0.6,3.7,1.8,5c1.2,1.3,2.6,1.9,4.4,1.9c1.7,0,3.2-0.7,4.3-1.9c1.2-1.3,1.7-2.9,1.7-4.8
	v-1.6c0-2.1-0.6-3.7-1.7-5c-1.2-1.3-2.6-1.9-4.4-1.9c-1.7,0-3.2,0.7-4.3,1.9s-1.7,2.9-1.7,4.8L17,26.9L17,26.9z M18.2,25.3
	c0-1.7,0.4-3.1,1.3-4.1c0.9-1,2.1-1.5,3.6-1.5c1.5,0,2.7,0.5,3.6,1.5c0.9,1,1.3,2.3,1.3,4.1v1.6c0,1.7-0.4,3-1.3,4.1
	c-0.9,1-2.1,1.6-3.5,1.6c-1.5,0-2.7-0.5-3.6-1.5c-0.9-1-1.4-2.4-1.4-4V25.3z M23,4.7l-1-0.7l-16,25.6l1,0.7L23,4.7z"/>
</svg>
