<?xml version="1.0" encoding="utf-8"?>
<!-- Generator: Adobe Illustrator 21.0.1, SVG Export Plug-In . SVG Version: 6.00 Build 0)  -->
<svg version="1.1" id="Layer_1" xmlns="http://www.w3.org/2000/svg" xmlns:xlink="http://www.w3.org/1999/xlink" x="0px" y="0px"
	 viewBox="0 0 34.6 34.6" style="enable-background:new 0 0 34.6 34.6;" xml:space="preserve">
<style type="text/css">
	.st0{fill:#ADB8C1;}
</style>
<g>
	<path class="st0" d="M17.3,0C7.7,0,0,7.8,0,17.3s7.7,17.3,17.3,17.3s17.3-7.7,17.3-17.3C34.6,7.7,26.9,0,17.3,0z M17.3,33.7
		C8.3,33.7,1,26.3,1,17.4c0-9,7.4-16.3,16.3-16.3s16.3,7.4,16.3,16.3S26.3,33.7,17.3,33.7z"/>
	<path class="st0" d="M32.6,16.8h-6.2c0-2.1-0.4-4.1-0.8-5.9c1.5-0.8,3-1.9,4.2-3.2c0.2-0.2,0.2-0.5,0-0.7s-0.5-0.2-0.7,0
		c-1.2,1.2-2.4,2.2-3.8,2.9c-1.5-4.9-4.4-8.2-7.7-8.4c-0.1-0.1-0.2-0.1-0.3-0.1c-0.1,0-0.2,0-0.3,0.1C13.7,1.6,10.8,5,9.3,9.8
		C7.9,9.1,6.7,8.1,5.6,6.9C5.4,6.8,5,6.8,4.9,6.9s-0.2,0.5,0,0.7C6,8.9,7.5,10,9,10.8c-0.5,1.8-0.7,3.8-0.8,5.9H1.9
		c-0.3,0.1-0.5,0.3-0.5,0.5c0,0.4,0.3,0.5,0.5,0.5h6.2c0,2.2,0.3,4.1,0.8,5.9c-1.5,0.8-2.9,1.9-4.1,3.2c-0.2,0.2-0.2,0.5,0,0.7
		c0,0.2,0.1,0.2,0.2,0.2s0.3,0,0.3-0.1c1.2-1.2,2.4-2.2,3.8-2.9c1.5,5,4.6,8.5,8.1,8.5s6.5-3.4,8-8.4c1.4,0.7,2.5,1.7,3.7,2.9
		c0.2,0.2,0.5,0.2,0.7,0c0.2-0.2,0.2-0.5,0-0.7c-1.2-1.3-2.6-2.3-4.1-3.2c0.5-1.8,0.7-3.9,0.8-5.9h6.2c0.3,0,0.5-0.2,0.5-0.5
		C33.2,16.9,32.9,16.8,32.6,16.8z M25.4,16.8h-7.6V13c2.4-0.1,4.8-0.6,6.9-1.7C25.1,13,25.4,14.8,25.4,16.8z M24.5,10.3
		c-2.1,1-4.3,1.5-6.7,1.6V2.4C20.7,2.7,23.2,5.9,24.5,10.3z M16.8,2.4v9.5c-2.3-0.1-4.6-0.6-6.7-1.6C11.4,5.9,13.9,2.7,16.8,2.4z
		 M9.8,11.3c2.2,1,4.5,1.6,6.9,1.6v3.8H9.2C9.2,14.8,9.5,13,9.8,11.3z M9.2,17.8h7.6v3.9c-2.4,0.1-4.8,0.6-6.9,1.6
		C9.5,21.6,9.2,19.7,9.2,17.8z M10.1,24.3c2.1-1,4.3-1.5,6.7-1.6v9.5C13.9,31.8,11.4,28.7,10.1,24.3z M17.8,32.1v-9.4
		c2.3,0.1,4.6,0.6,6.7,1.6C23.2,28.7,20.7,31.8,17.8,32.1z M24.8,23.2c-2.2-1-4.5-1.5-6.9-1.6v-3.9h7.6
		C25.4,19.7,25.1,21.6,24.8,23.2z"/>
</g>
</svg>
