<?xml version="1.0" encoding="utf-8"?>
<!-- Generator: Adobe Illustrator 22.1.0, SVG Export Plug-In . SVG Version: 6.00 Build 0)  -->
<svg version="1.1" id="Слой_1" xmlns="http://www.w3.org/2000/svg" xmlns:xlink="http://www.w3.org/1999/xlink" x="0px" y="0px"
	 viewBox="0 0 43.7 43.7" style="enable-background:new 0 0 43.7 43.7;" xml:space="preserve">
<style type="text/css">
	.st0{fill:#B2BCC5;}
</style>
<path class="st0" d="M9.7,10c-0.1,0-0.2,0-0.3-0.1c-0.2-0.2-0.2-0.5,0-0.7l2.8-2.7c0.2-0.2,0.5-0.2,0.7,0c0.2,0.2,0.2,0.5,0,0.7
	l-2.7,2.7C10,10,9.9,10,9.7,10z"/>
<path class="st0" d="M10.6,14.2c-0.1,0-0.2,0-0.3-0.1c-0.2-0.2-0.2-0.5,0-0.7l6.1-6.1c0.2-0.2,0.5-0.2,0.7,0c0.2,0.2,0.2,0.5,0,0.7
	l-6.1,6.1C10.8,14.2,10.8,14.2,10.6,14.2z"/>
<path class="st0" d="M25.3,40.9H8.4c-1.6,0-2.9-1.3-2.9-2.9V5.3c0-1.6,1.3-2.9,2.9-2.9h16.9c1.6,0,2.9,1.3,2.9,2.9v5.6h-1V5.3
	c0-1.1-0.9-2-2-2H8.4c-1.1,0-2,0.9-2,2v32.6c0,1.1,0.9,2,2,2h16.9c1.1,0,2-0.9,2-2v-7.6h1v7.6C28.3,39.5,27,40.9,25.3,40.9z"/>
<path class="st0" d="M30,29.7l-10.4-9.1L30,11.5v4.9h9.9v8.6H30V29.7z M21,20.6l8,7v-3.7h9.9v-6.6H29v-3.7L21,20.6z"/>
<path class="st0" d="M16.9,37c-1.3,0-2.2-1-2.2-2.2c0-1.3,1-2.2,2.2-2.2s2.2,1,2.2,2.2C19.1,36,18.1,37,16.9,37z M16.9,33.4
	c-0.7,0-1.3,0.6-1.3,1.3c0,0.7,0.6,1.3,1.3,1.3s1.3-0.6,1.3-1.3C18.2,34,17.6,33.4,16.9,33.4z"/>
</svg>
