<?xml version="1.0" encoding="utf-8"?>
<!-- Generator: Adobe Illustrator 21.0.1, SVG Export Plug-In . SVG Version: 6.00 Build 0)  -->
<svg version="1.1" id="Слой_1" xmlns="http://www.w3.org/2000/svg" xmlns:xlink="http://www.w3.org/1999/xlink" x="0px" y="0px"
	 viewBox="0 0 20.6 34.8" style="enable-background:new 0 0 20.6 34.8;" xml:space="preserve">
<style type="text/css">
	.st0{fill:#ADB8C1;}
</style>
<g>
	<path class="st0" d="M17.8,0h-15C1.3,0,0,1.3,0,2.8V32c0,1.5,1.3,2.8,2.8,2.8h15c1.5,0,2.8-1.3,2.8-2.8V2.8C20.6,1.3,19.3,0,17.8,0
		z M19.8,32.1c0,1.2-0.8,2-2,2h-15c-1.2,0-2-0.8-2-2V2.8c0-1.1,0.8-2,2-2h15c1.2,0,2,0.8,2,2C19.8,2.8,19.8,32.1,19.8,32.1z"/>
	<path class="st0" d="M2.4,27.7h15.8V2.4H2.4V27.7z M3.1,3.2h14.2V27H3.1V3.2z"/>
	<path class="st0" d="M10.3,28.5c-1.1,0-2,0.9-2,2c0,1.1,0.9,2,2,2s2-0.9,2-2C12.3,29.4,11.4,28.5,10.3,28.5z M10.3,31.7
		c-0.6,0-1.2-0.5-1.2-1.2c0-0.6,0.5-1.2,1.2-1.2c0.6,0,1.2,0.5,1.2,1.2C11.5,31.1,11,31.7,10.3,31.7z"/>
</g>
</svg>
