<?xml version="1.0" encoding="utf-8"?>
<!-- Generator: Adobe Illustrator 21.0.1, SVG Export Plug-In . SVG Version: 6.00 Build 0)  -->
<svg version="1.1" id="Capa_1" xmlns="http://www.w3.org/2000/svg" xmlns:xlink="http://www.w3.org/1999/xlink" x="0px" y="0px"
	 viewBox="0 0 34.3 34.3" style="enable-background:new 0 0 34.3 34.3;" xml:space="preserve">
<style type="text/css">
	.st0{fill:#00aff5;}
</style>
<g>
	<g>
		<path class="st0" d="M17.1,0.1c-9.3,0-17,7.6-17,17s7.6,17,17,17s17-7.7,17-17S26.5,0.1,17.1,0.1z M25.6,13.4v0.5
			c0,5.6-4.2,11.9-11.9,11.9c-2.4,0-4.6-0.7-6.4-1.9c0.3,0,0.7,0.1,1,0.1c2,0,3.8-0.7,5.2-1.8c-1.8,0-3.4-1.3-3.9-2.9
			c0.3,0,0.5,0.1,0.8,0.1c0.4,0,0.8,0,1.1-0.1c-1.9-0.4-3.4-2.1-3.4-4.1v-0.1c0.6,0.3,1.2,0.5,1.9,0.5c-1.1-0.8-1.9-2-1.9-3.5
			c0-0.8,0.2-1.5,0.6-2.1c2.1,2.5,5.2,4.2,8.7,4.4c-0.1-0.3-0.1-0.6-0.1-1c0-2.3,1.9-4.2,4.2-4.2c1.2,0,2.3,0.5,3.1,1.3
			c1-0.2,1.9-0.5,2.7-1c-0.3,1-1,1.8-1.8,2.3c0.8-0.1,1.7-0.3,2.4-0.7C27.1,12,26.4,12.8,25.6,13.4z"/>
	</g>
</g>
</svg>
