<?xml version="1.0" encoding="utf-8"?>
<!-- Generator: Adobe Illustrator 21.0.1, SVG Export Plug-In . SVG Version: 6.00 Build 0)  -->
<svg version="1.1" id="Capa_1" xmlns="http://www.w3.org/2000/svg" xmlns:xlink="http://www.w3.org/1999/xlink" x="0px" y="0px"
	 viewBox="0 0 34.3 34.3" style="enable-background:new 0 0 34.3 34.3;" xml:space="preserve">
<style type="text/css">
	.st0{fill:#006691;}
</style>
<g>
	<path class="st0" d="M17.1,0.1c-9.3,0-17,7.7-17,17s7.7,17,17,17s17-7.7,17-17S26.5,0.1,17.1,0.1z M25.8,18.9
		c0.8,0.8,1.6,1.5,2.3,2.4c0.3,0.4,0.6,0.8,0.8,1.2c0.3,0.6,0,1.3-0.5,1.4h-3.5C24,24,23.3,23.6,22.7,23c-0.5-0.5-0.9-1-1.4-1.5
		c-0.2-0.2-0.4-0.4-0.6-0.6c-0.5-0.3-0.9-0.2-1.2,0.3c-0.3,0.5-0.3,1.1-0.4,1.6c0,0.8-0.3,1-1.1,1.1c-1.8,0.1-3.5-0.2-5-1.1
		c-1.4-0.8-2.4-1.9-3.4-3.1c-1.8-2.4-3.2-5.1-4.4-7.9c-0.3-0.6-0.1-0.9,0.6-1c1.2,0,2.3,0,3.4,0c0.5,0,0.8,0.3,0.9,0.7
		c0.6,1.5,1.4,3,2.3,4.3c0.2,0.3,0.5,0.7,0.9,1c0.4,0.3,0.7,0.2,0.9-0.3c0.1-0.3,0.2-0.6,0.2-0.9c0.1-1,0.1-2.1-0.1-3.1
		c-0.1-0.7-0.5-1.1-1.1-1.3c-0.3-0.1-0.3-0.2-0.1-0.4c0.3-0.3,0.6-0.5,1.1-0.5h4c0.6,0.1,0.8,0.4,0.8,1v4.4c0,0.2,0.1,1,0.6,1.1
		c0.3,0.1,0.6-0.2,0.8-0.4c0.9-1,1.6-2.2,2.2-3.4c0.3-0.6,0.5-1.1,0.7-1.7c0.2-0.4,0.4-0.6,0.9-0.6H28c0.1,0,0.2,0,0.3,0
		c0.6,0.1,0.8,0.4,0.6,1c-0.3,1-0.9,1.8-1.5,2.6c-0.6,0.9-1.3,1.7-2,2.6C25,17.8,25,18.2,25.8,18.9z"/>
</g>
</svg>
