<?xml version="1.0" encoding="utf-8"?>
<!-- Generator: Adobe Illustrator 22.1.0, SVG Export Plug-In . SVG Version: 6.00 Build 0)  -->
<svg version="1.1" id="Capa_1" xmlns="http://www.w3.org/2000/svg" xmlns:xlink="http://www.w3.org/1999/xlink" x="0px" y="0px"
	 viewBox="0 0 65 58" style="enable-background:new 0 0 65 58;" xml:space="preserve">
<style type="text/css">
	.st0{fill:#FFFFFF;}
</style>
<g>
	<path class="st0" d="M33.9,16.7c-9.4,0-17.1,7.7-17.1,17.1s7.7,17.1,17.1,17.1S51,43.2,51,33.8S43.3,16.7,33.9,16.7z M42.6,35.6
		c0.8,0.8,1.6,1.5,2.3,2.4c0.3,0.4,0.6,0.8,0.8,1.2c0.3,0.6,0,1.3-0.5,1.4h-3.5c-0.9,0.1-1.6-0.3-2.2-0.9c-0.5-0.5-0.9-1-1.4-1.5
		c-0.2-0.2-0.4-0.4-0.6-0.6c-0.5-0.3-0.9-0.2-1.2,0.3c-0.3,0.5-0.3,1.1-0.4,1.6c0,0.8-0.3,1-1.1,1.1c-1.8,0.1-3.5-0.2-5-1.1
		c-1.4-0.8-2.4-1.9-3.4-3.1c-1.8-2.4-3.2-5.1-4.4-7.9c-0.3-0.6-0.1-0.9,0.6-1c1.2,0,2.3,0,3.4,0c0.5,0,0.8,0.3,0.9,0.7
		c0.6,1.5,1.4,3,2.3,4.3c0.2,0.3,0.5,0.7,0.9,1c0.4,0.3,0.7,0.2,0.9-0.3c0.1-0.3,0.2-0.6,0.2-0.9c0.1-1,0.1-2.1-0.1-3.1
		c-0.1-0.7-0.5-1.1-1.1-1.3c-0.3-0.1-0.3-0.2-0.1-0.4c0.3-0.3,0.6-0.5,1.1-0.5H35c0.6,0.1,0.8,0.4,0.8,1v4.4c0,0.2,0.1,1,0.6,1.1
		c0.3,0.1,0.6-0.2,0.8-0.4c0.9-1,1.6-2.2,2.2-3.4c0.3-0.6,0.5-1.1,0.7-1.7c0.2-0.4,0.4-0.6,0.9-0.6h3.8c0.1,0,0.2,0,0.3,0
		c0.6,0.1,0.8,0.4,0.6,1c-0.3,1-0.9,1.8-1.5,2.6c-0.6,0.9-1.3,1.7-2,2.6C41.8,34.5,41.8,34.9,42.6,35.6z"/>
</g>
</svg>
