<?xml version="1.0" encoding="utf-8"?>
<!-- Generator: Adobe Illustrator 21.0.1, SVG Export Plug-In . SVG Version: 6.00 Build 0)  -->
<svg version="1.1" id="Слой_1" xmlns="http://www.w3.org/2000/svg" xmlns:xlink="http://www.w3.org/1999/xlink" x="0px" y="0px"
	 viewBox="0 0 32.9 27.7" style="enable-background:new 0 0 32.9 27.7;" xml:space="preserve">
<style type="text/css">
	.st0{fill:#E30613;}
</style>
<g>
	<path class="st0" d="M32.7,6.8c-4.3-4.3-10.1-6.7-16.2-6.7S4.7,2.5,0.3,6.8C0,7.1,0,7.6,0.3,7.9s0.8,0.3,1.1,0
		c4-4,9.4-6.2,15.1-6.2s11,2.2,15.1,6.2c0.2,0.2,0.3,0.2,0.5,0.2s0.4-0.1,0.5-0.2C33,7.6,33,7.1,32.7,6.8z"/>
	<path class="st0" d="M16.5,9.1c-3.7,0-7.2,1.4-9.8,4.1c-0.3,0.3-0.3,0.8,0,1.1c0.2,0.2,0.3,0.2,0.5,0.2s0.4-0.1,0.5-0.2
		c2.3-2.3,5.4-3.6,8.7-3.6s6.4,1.3,8.7,3.6c0.3,0.3,0.8,0.3,1.1,0c0.3-0.3,0.3-0.8,0-1.1C23.7,10.6,20.2,9.1,16.5,9.1z"/>
	<path class="st0" d="M16.5,18.1c-1.3,0-2.5,0.5-3.4,1.4s-1.4,2.1-1.4,3.4s0.5,2.5,1.4,3.4s2.1,1.4,3.4,1.4s2.5-0.5,3.4-1.4
		s1.4-2.1,1.4-3.4s-0.5-2.5-1.4-3.4S17.8,18.1,16.5,18.1z M18.8,25.3c-1.3,1.3-3.4,1.3-4.7,0c-0.6-0.6-1-1.5-1-2.3
		c0-0.9,0.3-1.7,1-2.3c0.6-0.6,1.5-1,2.3-1c0.9,0,1.7,0.3,2.3,1c0.6,0.6,1,1.5,1,2.3C19.8,23.9,19.5,24.7,18.8,25.3z"/>
</g>
</svg>
