<svg id="Layer_1" xmlns="http://www.w3.org/2000/svg" viewBox="0 0 25.8 38.2"><style>.st0{fill:#adb8c1}</style><path class="st0" d="M22.1 0H3.6C1.6 0 0 1.6 0 3.6v31c0 1.9 1.6 3.6 3.6 3.6h18.6c2 0 3.6-1.6 3.6-3.6v-31c-.1-2-1.7-3.6-3.7-3.6zm2.4 34.5c0 1.4-1.1 2.5-2.5 2.5H3.6c-1.4 0-2.5-1.1-2.5-2.5v-31C1.1 2.1 2.2 1 3.6 1h18.6c1.4 0 2.5 1.1 2.5 2.5l-.2 31z"/><path class="st0" d="M12.9 29.3c-1.2 0-2.2 1-2.2 2.2s1 2.2 2.2 2.2 2.2-1 2.2-2.2c-.1-1.2-1.1-2.2-2.2-2.2zm0 3.3c-.6 0-1.1-.5-1.1-1.1s.5-1.1 1.1-1.1c.5 0 1 .5 1.1 1.1-.1.8-.5 1.1-1.1 1.1zM16.7 10c-3.4 0-5.6 2.7-5.6 6.7 0 .5 0 1 .1 1.4H9.9c.1-.1.1-.2.1-.2v-7.8H7.7l-4.9 9.2h6.1v3.3c0 .4.3.6.6.6s.5-.3.6-.5v-3.3h1c.2 0 .3-.1.4-.1.7 2.6 2.6 4.1 5.2 4.1 1.2 0 2.2-.2 3.3-.8l.4-.2v-5.7h-2.1c-.4 0-.6.2-.6.6s.3.6.6.6h.9v3.9c-.9.3-1.7.5-2.6.5-4 0-4.4-3.8-4.4-5.3 0-3.5 1.7-5.6 4.5-5.6 1 0 2 .3 2.9.9.2.2.6.1.8-.2.2-.2.1-.6-.2-.8-1-.9-2.2-1.3-3.5-1.3zm-12 8.1l3.7-6.9h.5v6.6c0 .1.1.2.1.2l-4.3.1z"/></svg>