<svg id="Layer_1" xmlns="http://www.w3.org/2000/svg" viewBox="0 0 39 54"><style>.st0{fill:#adb8c1}</style><path class="st0" d="M29.5 8.2H10.8c-2 0-3.6 1.6-3.6 3.6v31.3c0 1.9 1.6 3.6 3.6 3.6h18.8c2 0 3.6-1.6 3.6-3.6V11.8c0-2-1.6-3.6-3.7-3.6zM32 43.1c0 1.4-1.1 2.5-2.5 2.5H10.8c-1.4 0-2.5-1.1-2.5-2.5V11.8c0-1.4 1.1-2.5 2.5-2.5h18.8c1.4 0 2.5 1.1 2.5 2.5v31.3z"/><path class="st0" d="M20.2 37.8c-1.2 0-2.2 1-2.2 2.2 0 1.2 1 2.2 2.2 2.2 1.2 0 2.2-1 2.2-2.2 0-1.2-1-2.2-2.2-2.2zm0 3.4c-.6 0-1.1-.5-1.1-1.1 0-.6.5-1.1 1.1-1.1.5 0 1 .5 1.1 1.1-.1.7-.5 1.1-1.1 1.1zm3.9-22.9c-3.4 0-5.7 2.7-5.7 6.8 0 .5 0 1 .1 1.4h-1.3c.1-.1.1-.2.1-.2v-7.9H15l-5 9.3h6.2V31c0 .4.3.6.6.6s.5-.3.6-.5v-3.3h1c.2 0 .3-.1.4-.1.7 2.6 2.6 4.1 5.3 4.1 1.2 0 2.2-.2 3.3-.8l.4-.2V25h-2.1c-.4 0-.6.2-.6.6s.3.6.6.6h.9v3.9c-.9.3-1.7.5-2.6.5-4 0-4.4-3.8-4.4-5.4 0-3.5 1.7-5.7 4.5-5.7 1 0 2 .3 2.9.9.2.2.6.1.8-.2.2-.2.1-.6-.2-.8-1-.7-2.2-1.1-3.5-1.1zm-12.2 8.2l3.7-7h.5v6.7c0 .1.1.2.1.2h-4.3z"/></svg>