<svg id="Слой_1" xmlns="http://www.w3.org/2000/svg" viewBox="0 0 13.2 33.9"><style>.st0{fill:#adb8c1}</style><path class="st0" d="M11.6 8.6h-.4V1.2H9.6V0H3.5v1.2H2v7.4h-.2c-1 0-1.8.8-1.8 1.8v4.4c0 .7.2 1.8.5 2.5l2.1 4.6c.3.7 1.1 1.3 1.9 1.4v10.6h4.1V23.3c.8-.1 1.6-.6 1.9-1.4l2.2-4.6c.3-.7.5-1.8.5-2.5v-4.4c0-1-.8-1.8-1.6-1.8zM3 2.2h1.5V.9h4.2v1.2h1.5v6.5H3V2.2zm0 7.4h7.2V12c-.4.4-1.8 1.6-3.6 1.6S3.3 12.4 3 12V9.6zM7.7 33H5.4v-9.6h2.2l.1 9.6zm4.7-18.3c0 .6-.3 1.7-.4 2.2l-2.2 4.6c-.3.4-.9.9-1.3.9H4.8c-.5 0-1.1-.4-1.3-.9l-2.1-4.6c-.3-.5-.4-1.6-.4-2.2v-4.4c0-.4.4-.8.8-.8H2v2.8l.1.2c.1.1 1.8 2 4.5 2s4.4-1.9 4.5-2l.1-.2V9.6h.4c.4 0 .8.4.8.8v4.3z"/><path class="st0" d="M4.7 3.3c-.3 0-.4.2-.4.4V7c0 .3.2.4.4.4.3 0 .4-.2.4-.4V3.9c.1-.3-.1-.6-.4-.6zm1.9 0c-.3 0-.4.2-.4.4V7c0 .3.2.4.4.4.2.1.4 0 .4-.3V3.9c0-.3-.2-.6-.4-.6zm1.9 0c-.3 0-.4.2-.4.4V7c0 .3.2.4.4.4.3 0 .4-.2.4-.4V3.9c0-.3-.2-.6-.4-.6z"/></svg>