<svg id="Capa_1" xmlns="http://www.w3.org/2000/svg" viewBox="0 0 32.6 33.3"><style>.st0{fill:#9c9c9c}</style><path class="st0" d="M14.7 33.3c-.1 0-.2 0-.3-.1L.2 18.8c-.2-.2-.2-.5 0-.7L17.1.5c.1-.1.2-.1.3-.1h7.1c.1 0 .3 0 .4.1l1.8 2c.2.2.1.5 0 .7s-.5.1-.7 0l-1.6-1.8h-6.7L1.2 18.5l13.5 13.6L30.9 15V7.6l-.8-.6c-.2-.1-.2-.5-.1-.7.1-.2.5-.2.7-.1l1 .7c.1.1.2.2.2.4v7.8c0 .1 0 .2-.1.3L15.1 33.1c-.2.1-.3.1-.4.2z"/><path class="st0" d="M13.9 25c-.2 0-.4-.1-.4-.3l-1.3-3.6-3.8-.9c-.2 0-.3-.2-.3-.4s0-.4.2-.5l3-2.4L11 13c0-.2.1-.3.2-.4.1-.1.3-.1.5 0l3.3 2.1 3.6-1.4c.2 0 .4 0 .5.1s.2.3.1.5l-1 3.8 2.5 3c.1.1.1.3.1.5 0 .1-.2.3-.4.3l-3.9.2-2 3.3c-.3-.1-.4 0-.6 0zm-4.4-5.6l3.1.8c.1 0 .3.1.3.3l1.1 3 1.7-2.7c.1-.1.2-.2.4-.2l3.2-.1-2-2.5c-.1-.1-.1-.3-.1-.4l.8-3.1-3 1.2h-.4l-2.7-1.8.2 3.2c0 .1 0 .3-.2.4l-2.4 1.9zM24 12.1c-1.9 0-3.4-1.5-3.4-3.4s1.5-3.4 3.4-3.4 3.4 1.5 3.4 3.4-1.6 3.4-3.4 3.4zm0-5.8c-1.3 0-2.5 1.1-2.5 2.5s1.1 2.5 2.5 2.5c1.3 0 2.5-1.1 2.5-2.5S25.3 6.3 24 6.3z"/><path class="st0" d="M24.5 10.1c-.7 0-1.3-.2-1.7-.7-.5-.6-.7-1.3-.6-2.2 0-.2.3-.4.6-.4.2 0 .4.3.4.6-.1.5 0 1 .3 1.3.6.6 1.7.5 2.5-.2l4.8-4.6c.4-.4.6-.8.7-1.3 0-.5-.1-.8-.3-1.2-.3-.3-.7-.4-1.1-.4-.5 0-1 .2-1.3.6-.2.2-.5.2-.7 0s-.2-.5 0-.7C28.7.4 29.3.1 30 0c.7 0 1.4.2 1.9.7.5.5.7 1.2.6 1.9-.1.7-.4 1.3-1 1.9l-4.8 4.6c-.7.7-1.4 1-2.2 1z"/></svg>