<svg id="Layer_1" xmlns="http://www.w3.org/2000/svg" viewBox="0 0 135 125"><style>.st0{fill:#acb8c1}.st1,.st2{fill:#adb8c1}.st2{stroke:#acb8c1;stroke-miterlimit:10}.st2,.st3{stroke-width:.5}.st3,.st4{fill:#acb8c1;stroke:#acb8c1;stroke-miterlimit:10}.st5{stroke-linecap:round}.st5,.st6{fill:none;stroke:#acb8c1;stroke-width:3.5;stroke-linejoin:round;stroke-miterlimit:10}</style><path class="st0" d="M114.8 94.7V69.6s0-.2-.2-.2v-.2l-.2-.2-.2-.2-22.3-15.1V30.2c0-.2 0-.4-.2-.4v-.2c-.2-.2-.4-.2-.6-.4l-22.9-15c-.4-.4-1.2-.4-1.6 0l-22.9 15c-.2.2-.4.2-.4.4v.2c0 .2-.2.4-.2.4v23.7L20.8 68.6l-.2.2-.2.2s0 .2-.2.2v25.1c0 .6.2 1 .6 1.2l22.9 15.1c.2.2.6.2.8.2s.6 0 .8-.2L67 96.3 89.5 111c.2.2.6.2.8.2s.6 0 .8-.2L114 95.9l.2-.2.2-.2.2-.2s0-.2.2-.2v-.4zm-4.2-24.5L90.3 83.4 69.8 70l20.5-13.5 20.3 13.7zm-44-23.5c.2.2.6.2.8.2s.6 0 .8-.2l20.7-13.5v20.7L67.4 68 45.9 53.9V33.2l20.7 13.5zm-22.1 9.8l20.1 13.3L44.5 83 24.4 69.8l20.1-13.3zm22.9-39.1l20.1 13.3-20.1 13.2-20.1-13.5 20.1-13zm-22.9 89.9L23 93.3V72.6L43.7 86c.2.2.6.2.8.2s.6 0 .8-.2L66 72.6v20.7l-21.5 14zm45.8.4l-21.5-14V73l20.7 13.5c.2.2.6.2.8.2s.6 0 .8-.2L111.8 73v20.7l-21.5 14z"/></svg>