<svg xmlns="http://www.w3.org/2000/svg" viewBox="4 1.9 580 396"><path fill="#ADB8C1" d="M525.6 395.9H62.4C30.2 395.9 4 369.7 4 337.6V60.2C4 28.1 30.2 1.9 62.4 1.9h463.2C557.8 1.9 584 28 584 60.2v277.4c0 32.1-26.2 58.3-58.4 58.3zM62.4 28.4c-17.5 0-31.8 14.3-31.8 31.8v277.4c0 17.5 14.3 31.7 31.8 31.7h463.2c17.5 0 31.8-14.2 31.8-31.7V60.2c0-17.5-14.3-31.8-31.8-31.8H62.4z"/><path fill="#ADB8C1" d="M294 303.1c-3.4 0-6.8-1.3-9.4-3.9L24 39.3c-5.2-5.2-5.2-13.6 0-18.8 5.2-5.2 13.6-5.2 18.8 0L294 271 546.5 19.2c5.2-5.2 13.6-5.2 18.8 0s5.2 13.6 0 18.8L303.4 299.2c-2.6 2.6-6 3.9-9.4 3.9z"/><path fill="#ADB8C1" d="M557.2 379.9c-3.4 0-6.8-1.3-9.4-3.9L380.3 209c-5.2-5.2-5.2-13.6 0-18.8 5.2-5.2 13.6-5.2 18.8 0l167.4 167c5.2 5.2 5.2 13.6 0 18.8-2.5 2.6-5.9 3.9-9.3 3.9zM31.8 379c-3.4 0-6.8-1.3-9.4-3.9-5.2-5.2-5.2-13.6 0-18.8l168.1-167.7c5.2-5.2 13.6-5.2 18.8 0 5.2 5.2 5.2 13.6 0 18.8L41.2 375.1c-2.6 2.6-6 3.9-9.4 3.9z"/></svg>