<svg id="Layer_1" xmlns="http://www.w3.org/2000/svg" viewBox="0 0 54 54"><style>.st0{fill:#b2bcc5}</style><path class="st0" d="M40.4 21.6c-.3.1-.4.4-.3.7 1 2.3 1.5 4.6 1.5 7.1 0 9.9-8.1 18-18 18s-18-8.1-18-18 8.1-18 18-18c1.5 0 2.9.2 4.3.5.3.1.6-.1.7-.4.1-.3-.1-.6-.4-.7-1.5-.4-3.1-.6-4.6-.6-5.1 0-9.9 2-13.5 5.6-3.6 3.6-5.6 8.4-5.6 13.5s2 9.9 5.6 13.5c3.6 3.6 8.4 5.6 13.5 5.6s9.9-2 13.5-5.6c3.6-3.6 5.6-8.4 5.6-13.5 0-2.6-.5-5.2-1.6-7.6-.1-.1-.4-.2-.7-.1z"/><path class="st0" d="M46.8 8.2c-.1-.3-.4-.5-.7-.4-1.8.5-4 2.1-6.6 4.8-2.3 2.3-4.7 5.4-7.1 8.9-4.2 6.2-7.5 12.7-8.8 17-2-4.7-6.6-12.4-10.8-14.5-.3-.1-.6 0-.7.3-.1.3 0 .6.3.7 4.3 2.1 9.5 11.2 10.9 15.5v.2h.1l.1.1h.2c.7-4.1 4.3-11.5 9-18.4 2.4-3.5 4.8-6.5 7-8.8 2.4-2.5 4.5-4 6.1-4.5 1-.3 1.1-.6 1-.9z"/></svg>