<svg xmlns="http://www.w3.org/2000/svg" viewBox="0 0 57.146 54.928" fill="#adb8c1"><path d="M8.387 21.515a.75.75 0 0 1-.75-.75V5.785a.75.75 0 0 1 1.5 0v14.98a.75.75 0 0 1-.75.75zm47.006 25.637H34.022a.75.75 0 0 1 0-1.5h21.371c.14 0 .253-.113.253-.253V9.817a.254.254 0 0 0-.253-.254.75.75 0 0 1 0-1.5c.967 0 1.753.787 1.753 1.754v35.582c0 .967-.786 1.753-1.753 1.753zm-5.227-40.59a.75.75 0 0 1-.75-.75V1.753a.254.254 0 0 0-.253-.254.75.75 0 0 1 0-1.499c.967 0 1.753.787 1.753 1.754v4.059a.75.75 0 0 1-.75.749z"/><path d="M12.425 9.576c-2.64 0-4.788-2.148-4.788-4.788S9.785 0 12.425 0h36.738a.75.75 0 0 1 0 1.5H12.425c-1.813 0-3.288 1.475-3.288 3.288s1.475 3.288 3.288 3.288l42.968-.013a.75.75 0 1 1 0 1.5l-42.968.013zm34.458 21.435a4.232 4.232 0 0 1-4.227-4.228c0-2.33 1.896-4.226 4.227-4.226s4.226 1.896 4.226 4.226a4.231 4.231 0 0 1-4.226 4.228zm0-6.953a2.73 2.73 0 0 0-2.727 2.726 2.73 2.73 0 0 0 2.727 2.728 2.73 2.73 0 0 0 2.726-2.728 2.73 2.73 0 0 0-2.726-2.726zm-32.238 30.87C6.57 54.928 0 48.358 0 40.283c0-8.074 6.57-14.644 14.645-14.644S29.29 32.208 29.29 40.283s-6.57 14.645-14.645 14.645zm0-27.789C7.397 27.139 1.5 33.036 1.5 40.283c0 7.248 5.897 13.146 13.145 13.146S27.79 47.531 27.79 40.283c0-7.247-5.897-13.144-13.145-13.144z"/><path d="M14.645 48.807a.75.75 0 0 1-.75-.75V32.511a.75.75 0 0 1 1.5 0v15.546a.75.75 0 0 1-.75.75z"/><path d="M22.417 41.033H6.872a.75.75 0 0 1 0-1.5h15.545a.75.75 0 0 1 0 1.5z"/>-</svg>