<svg xmlns="http://www.w3.org/2000/svg" width="595.279" height="567.623" viewBox="0 137.133 595.279 567.623"><path fill="#ADB8C1" d="M574.837 704.756H76.965c-24.052 0-43.293-7.216-56.521-21.646C0 661.462 0 632.601 0 626.587V205.682c0-3.608 3.607-8.418 9.62-8.418 6.014 0 8.418 3.607 8.418 9.621V627.79c0 2.405 0 26.457 15.634 42.091 9.621 10.823 25.256 15.633 43.293 15.633h497.872c1.201 0 3.606-1.202 3.606-3.605v-426.92c0-1.203-1.202-3.608-3.606-3.608-4.812 0-9.621-3.608-9.621-9.621s3.607-9.621 9.621-9.621a21.557 21.557 0 0 1 21.646 21.646v428.121c-1.203 13.229-10.824 22.85-21.646 22.85zm-63.738-488.251c-4.812 0-9.62-3.608-9.62-9.621V158.78c0-1.203-1.202-3.608-3.607-3.608-4.812 0-9.619-3.608-9.619-9.621s6.013-8.418 10.822-8.418a21.557 21.557 0 0 1 21.646 21.646v49.306c-.001 3.61-4.812 8.42-9.622 8.42z"/><path fill="#ADB8C1" d="M57.724 252.583C25.254 252.583 0 226.126 0 194.859s25.254-57.724 57.725-57.724h441.35c4.811 0 9.62 3.607 9.62 9.621 0 6.013-3.606 9.621-9.62 9.621H57.724c-21.646-1.203-39.687 16.836-39.687 38.483s18.039 39.685 39.687 39.685h517.112c4.811 0 9.619 3.608 9.619 9.621s-3.606 9.621-9.619 9.621l-517.112-1.204zm413.689 257.355c-27.658 0-50.509-22.851-50.509-50.51s22.851-50.509 50.509-50.509c27.66 0 50.51 22.85 50.51 50.509 1.203 27.659-21.647 50.51-50.51 50.51zm0-82.98c-18.037 0-32.47 14.431-32.47 32.47s14.433 32.472 32.47 32.472c18.039 0 32.471-14.433 32.471-32.472 1.203-18.039-13.229-32.47-32.471-32.47z"/></svg>