<svg id="Capa_1" xmlns="http://www.w3.org/2000/svg" viewBox="0 0 18 18"><style>.st0{fill:#9c9c9c}</style><g id="calendar_2_"><path class="st0" d="M16.4 1.7H14V.6c0-.3-.2-.6-.6-.6s-.6.2-.6.6v1.1H9.4V.6c0-.3-.2-.6-.6-.6s-.4.2-.4.6v1.1H5V.6c0-.3-.2-.6-.6-.6s-.5.2-.5.6v1.1H1.5C.6 1.7 0 2.4 0 3.2v13.3c0 .8.7 1.5 1.5 1.5h15c.8 0 1.5-.7 1.5-1.5V3.2c-.1-.8-.7-1.5-1.6-1.5zm.4 14.8c0 .2-.2.4-.4.4h-15c-.2 0-.4-.2-.4-.4V3.2c0-.2.2-.4.4-.4h2.4v1.1c.1.4.3.6.6.6s.6-.2.6-.6V2.8h3.4v1.1c0 .4.2.6.5.6s.6-.2.6-.6V2.8h3.4v1.1c0 .3.2.6.6.6s.6-.2.6-.6V2.8h2.4c.2 0 .4.2.4.4v13.3h-.1z"/><path class="st0" d="M3.9 6.7h2.2v1.7H3.9zm0 2.9h2.2v1.7H3.9zm0 2.8h2.2v1.7H3.9zm3.9 0H10v1.7H7.8zm0-2.8H10v1.7H7.8zm0-2.9H10v1.7H7.8zm4 5.7H14v1.7h-2.2zm0-2.8H14v1.7h-2.2zm0-2.9H14v1.7h-2.2z"/></g></svg>