<svg id="Capa_1" xmlns="http://www.w3.org/2000/svg" viewBox="0 0 35.9 33.7"><style>.st0{fill:#9c9c9c}</style><path class="st0" d="M35.5 7.3L10 3.4c-.3-.1-.6.1-.6.4-.1.3.1.6.4.6l25 3.8v10.6c0 .1-.3.4-.5.5-.1.1-.7.3-.9.3H9.1c-.2-.1-.4-.1-.5-.1-.2-.1-.7-.7-1.1-1.3V2c0-.1-.1-.1-.1-.2-.2-.3-.6-1.1-.9-1.3C6.2.3 5.4.1 5 0H.5C.2 0 0 .2 0 .5s.2.5.5.5h4.3c.5.1 1 .2 1.1.3 0 .1.3.5.5.9v20.9c0 .2 0 .7.1 1 .2.4.7.9 1.1 1.1.3.2 1.1.2 1.5.2.1 0 .2 0 .3-.1h25.5c.3 0 .5-.2.5-.5s-.2-.5-.5-.5H9.5c-.6 0-1.3 0-1.4-.1-.1 0-.4-.4-.5-.5-.1-.1-.1-.4-.1-.7v-3.1c.2.3.5.5.7.6.2.1.6.2.9.2h24.2c.1 0 .2 0 .3-.1.3 0 1-.2 1.3-.4.3-.2.7-.7.9-1.1.1-.1.1-.4.1-.7V7.8c0-.3-.2-.5-.4-.5zm-22.7 20c-1.8 0-3.3 1.4-3.3 3.2 0 1.8 1.5 3.2 3.3 3.2s3.3-1.4 3.3-3.2c0-1.8-1.5-3.2-3.3-3.2zm0 5.4c-1.3 0-2.3-1-2.3-2.2 0-1.2 1-2.2 2.3-2.2 1.2 0 2.3 1 2.3 2.2 0 1.2-1 2.2-2.3 2.2zm18.4-5.4c-1.8 0-3.3 1.4-3.3 3.2 0 1.8 1.5 3.2 3.3 3.2 1.8 0 3.3-1.4 3.3-3.2 0-1.8-1.5-3.2-3.3-3.2zm0 5.4c-1.3 0-2.3-1-2.3-2.2 0-1.2 1-2.2 2.3-2.2 1.3 0 2.3 1 2.3 2.2 0 1.2-1 2.2-2.3 2.2z"/></svg>