<svg xmlns="http://www.w3.org/2000/svg" viewBox="0 0 512.029 512.029" fill="#fff"><path d="M111.758 8.189c-20.032-11.072-43.552-10.816-63.456.16l233.28 215.2 78.368-78.368L111.758 8.189zM24.974 30.365c-5.696 9.312-8.96 19.968-8.96 31.264v388.672c0 10.944 2.976 21.376 8.352 30.496l234.592-234.592L24.974 30.365zm438.88 172.16l-74.752-41.248-84 83.968 102.944 94.944 55.84-30.816c20.096-11.136 32.128-31.104 32.128-53.44-.032-22.336-12.032-42.304-32.16-53.408zm-181.376 65.376L47.246 503.133c10.208 5.824 21.408 8.896 32.672 8.896 10.88 0 21.824-2.752 31.84-8.288l266.784-147.232-96.064-88.608z"/></svg>