<svg id="Слой_1" xmlns="http://www.w3.org/2000/svg" viewBox="0 0 38.4 37.3"><style>.st0{fill:#acb8c1}</style><path class="st0" d="M38 18.1L20.4.5c-.6-.6-1.6-.6-2.3 0L.4 18.1c-.5.5-.4.9-.3 1.2 0 .2.3.6 1.1.6h5v17.4h26.2V19.8h4.9c.8 0 1-.4 1.1-.6.1-.2 0-.6-.4-1.1zm-6.8.7v17.4h-24V18.8h-6L18.8 1.3c.2-.3.6-.3.8 0l17.6 17.6s-6 0-6-.1z"/><path class="st0" d="M27.6 18.1l-.6.7-.1-.1c-2-2-4.8-3.2-7.7-3.2s-5.6 1.2-7.7 3.1l-.1.2-.7-.7.1-.1c2.2-2.2 5.2-3.5 8.3-3.5 3.3.1 6.2 1.3 8.5 3.6z"/><path class="st0" d="M25.4 20.3l-.7.7-.1-.1c-1.5-1.5-3.4-2.2-5.4-2.2s-4 .8-5.4 2.2l-.1.1-.6-.7.1-.1c1.6-1.6 3.8-2.5 6.1-2.5s4.5.9 6.1 2.6z"/><path class="st0" d="M23.1 22.8l-.7.7-.1-.1c-.9-.9-1.9-1.3-3.1-1.3s-2.3.5-3.1 1.3H16l-.7-.7.1-.1c2.1-2.1 5.5-2.1 7.7.2zm-2.4 2.1c-.4-.4-.9-.6-1.5-.6s-1.1.2-1.5.6-.6.9-.6 1.5.2 1.1.6 1.5.9.6 1.5.6 1.1-.2 1.5-.6.6-.9.6-1.5-.4-1.1-.6-1.5zM18.4 27c-.2-.2-.3-.5-.3-.7 0-.3.1-.6.3-.7.2-.2.5-.3.7-.3s.6.1.8.3c.2.2.3.5.3.7 0 .3-.1.6-.3.7-.3.4-1.1.4-1.5 0z"/></svg>