<svg id="Слой_1" xmlns="http://www.w3.org/2000/svg" viewBox="0 0 52 53"><style>.st0{fill:#acb8c1}</style><path class="st0" d="M47.4 26.5L29.2 8.3c-.6-.6-1.7-.6-2.4 0L8.6 26.5c-.5.5-.4.9-.3 1.2 0 .2.3.6 1.1.6h5.2v17.9h27V28.3h5.1c.8 0 1-.4 1.1-.6.1-.3 0-.7-.4-1.2zm-7 .7v17.9H15.6V27.2H9.5L27.6 9.1c.2-.2.6-.2.8 0l18.1 18.1h-6.1z"/><path class="st0" d="M36.7 26.5l-.7.7-.1-.1C33.8 25 31 23.8 28 23.8S22.2 25 20.1 27l-.1.2-.7-.7.1-.1c2.3-2.3 5.4-3.6 8.6-3.6 3.3 0 6.3 1.2 8.6 3.6l.1.1z"/><path class="st0" d="M34.4 28.8l-.7.7-.1-.1c-1.5-1.5-3.5-2.3-5.6-2.3-2.1 0-4.1.8-5.6 2.3l-.1.1-.6-.7.1-.1c1.7-1.7 3.9-2.6 6.3-2.6s4.6.9 6.3 2.6v.1z"/><path class="st0" d="M32 31.2l-.7.7-.1-.1c-.9-.9-2-1.3-3.2-1.3-1.2 0-2.4.5-3.2 1.3l-.1.1-.7-.7.1-.1c2.2-2.1 5.7-2.1 7.8 0l.1.1zm-2.5 2.3c-.4-.4-.9-.6-1.5-.6s-1.1.2-1.5.6c-.4.4-.6.9-.6 1.5s.2 1.1.6 1.5c.4.4.9.6 1.5.6s1.1-.2 1.5-.6c.4-.4.6-.9.6-1.5s-.3-1.1-.6-1.5zm-2.3 2.2c-.2-.2-.3-.5-.3-.7 0-.3.1-.6.3-.7.2-.2.5-.3.7-.3s.6.1.8.3c.2.2.3.5.3.7 0 .3-.1.6-.3.7-.3.4-1.1.4-1.5 0z"/></svg>