<svg id="Capa_1" xmlns="http://www.w3.org/2000/svg" viewBox="0 0 33 33.1"><style>.st0{fill:#9c9c9c}</style><path class="st0" d="M16.5 33.1C7.4 33.1 0 25.7 0 16.6S7.4 0 16.5 0 33 7.4 33 16.5s-7.4 16.6-16.5 16.6zm0-32.2C7.9.9.9 7.9.9 16.5s7 15.7 15.6 15.7 15.6-7 15.6-15.6S25.1.9 16.5.9z"/><path class="st0" d="M14.7 26.6c-.1 0-.1 0 0 0-.3 0-.5-.3-.5-.5l2.5-11.6h-2.9c-.3 0-.5-.2-.5-.5s.2-.5.5-.5h3.4c.1 0 .3 0 .4.2.1.1.1.2.1.4l-2.6 12.2c-.1.2-.2.3-.4.3z"/><circle class="st0" cx="17.6" cy="9.8" r="1.3"/></svg>