<svg id="Capa_1" xmlns="http://www.w3.org/2000/svg" viewBox="0 0 34.3 34.3"><style>.st0{fill:#ef72ad}</style><path class="st0" d="M17.1 20.5c1.9 0 3.4-1.5 3.4-3.4 0-.8-.3-1.5-.6-2-.6-.9-1.7-1.5-2.8-1.5-1.2 0-2.2.6-2.8 1.5-.4.6-.6 1.3-.6 2 .1 1.9 1.7 3.4 3.4 3.4zm7.6-10.4v-.4h-3.3V13l3.3-.1z"/><path class="st0" d="M17.1.1C7.7.1.1 7.7.1 17.1s7.6 17 17 17 17-7.6 17-17c.2-9.4-7.5-17-17-17zm9.8 15v8c0 2.1-1.7 3.7-3.7 3.7H11.3c-2.1 0-3.7-1.7-3.7-3.7V11.2c0-2.1 1.7-3.7 3.7-3.7h11.9c2.1 0 3.7 1.7 3.7 3.7v3.9z"/><path class="st0" d="M22.5 17.1c0 2.9-2.4 5.3-5.3 5.3s-5.3-2.4-5.3-5.3c0-.7.1-1.4.4-2H9.5v8c0 1 .8 1.9 1.9 1.9h11.9c1 0 1.9-.8 1.9-1.9v-8h-2.9c.1.7.2 1.4.2 2z"/></svg>