<svg id="Слой_1" xmlns="http://www.w3.org/2000/svg" viewBox="0 0 27.2 32.6"><style>.st0{fill:#a0a0a0}</style><path class="st0" d="M25.6 0h-24C.7 0 0 .7 0 1.6V31c0 .9.7 1.6 1.6 1.6h24c.9 0 1.6-.7 1.6-1.7V1.6c0-.9-.7-1.6-1.6-1.6zM1.6.8h24c.5 0 .8.4.8.8v3.6H.8V1.6c0-.5.4-.8.8-.8zm24 30.9h-24c-.5 0-.8-.4-.8-.8V6h25.6v24.9c0 .5-.4.8-.8.8z"/><path class="st0" d="M18.1 19.6H2.8c-.2 0-.4.1-.4.4 0 .2.1.4.4.4h15.3c.3 0 .4-.2.4-.4s-.1-.4-.4-.4zm0 3.3H2.8c-.2 0-.4.1-.4.4 0 .2.1.4.4.4h15.3c.3 0 .4-.1.4-.4 0-.2-.1-.4-.4-.4zm0 2.9H2.8c-.2 0-.4.2-.4.4s.1.4.4.4h15.3c.3 0 .4-.2.4-.4s-.1-.4-.4-.4zM2.8 17.1h10.8c.3 0 .4-.2.4-.5V9.2c0-.2-.1-.4-.4-.4H2.8c-.2 0-.4.1-.4.4v7.5c0 .2.1.4.4.4zm.5-7.6h9.9v6.7H3.3V9.5zm-.5-6.4h3.9c.3 0 .4-.2.4-.4s-.1-.4-.4-.4H2.8c-.2 0-.4.2-.4.4s.1.4.4.4zm17.1 0h1.6c.3 0 .4-.2.4-.4s-.1-.4-.4-.4h-1.6c-.2 0-.4.2-.4.4s.1.4.4.4zm2.7 0h1.6c.2 0 .4-.2.4-.4s-.1-.4-.4-.4h-1.6c-.2 0-.4.2-.4.4s.1.4.4.4z"/></svg>