<svg id="Capa_1" xmlns="http://www.w3.org/2000/svg" viewBox="0 0 23.3 19.9"><style>.st0{fill:#adb8c1}</style><path class="st0" d="M20.8 11.5c-2.1 1.6-4.9 1.8-7.1.5-.1-.1-.3-.1-.4 0l-1.5 1.2c-.1.1-.1.2-.1.3l-.2 1.7-1.7-.2c-.1 0-.2 0-.3.1l-.5.4c-.1.1-.1.2-.1.3l-.2 1.7h-.4L7 17.3c-.1 0-.2 0-.3.1l-.7.2c-.1.1-.1.2-.1.3l-.2 1.7-1.7-.3c-.1 0-.2 0-.3.1l-.1.1c-1 .7-2.4.6-3.1-.4-.7-1-.6-2.4.4-3.1l9.7-7.4c.1-.1.2-.3.1-.4-.7-2.7.3-5.3 2.3-6.9 2.8-2.2 6.9-1.6 9 1.2 1 1.4 1.5 3 1.3 4.7-.2 1.8-1.1 3.3-2.5 4.3zm-9.5 1.1l1.5-1.2c.4-.3.9-.3 1.3-.1 2 1.1 4.4 1 6.2-.4 1.2-.9 2-2.2 2.2-3.7.2-1.5-.2-3-1.1-4.2C19.5.5 16 0 13.5 1.9c-1.8 1.4-2.6 3.7-2 5.9.1.5 0 .9-.4 1.2l-9.7 7.4c-.6.5-.8 1.4-.3 2 .5.6 1.4.8 2 .3l.1-.1c.2-.2.6-.3.9-.2l.9.3.1-.9c0-.3.2-.6.4-.8l.5-.4c.2-.2.6-.3.9-.2l.9.1.2-1c0-.3.2-.6.4-.8l.5-.4c.2-.2.6-.3.9-.2l.9.1.1-.9c.1-.3.2-.5.5-.7zm8.9-6.2c-.8.6-2 .5-2.7-.4-.6-.8-.5-2 .4-2.7.8-.6 2-.5 2.7.4s.4 2-.4 2.7zm-1.9-2.5c-.5.4-.6 1.1-.2 1.6.4.5 1.1.6 1.6.2.5-.4.6-1.1.2-1.6-.4-.5-1.1-.6-1.6-.2z"/></svg>