<svg id="Layer_1" xmlns="http://www.w3.org/2000/svg" viewBox="0 0 43.9 31.2"><style>.st0{fill:#adb8c1}</style><path class="st0" d="M43.9 4.8c0-2.7-2.1-4.7-4.7-4.7H4.7C2.1 0 0 2.2 0 4.8v21.6c0 2.7 2.1 4.7 4.7 4.7h34.5c2.6 0 4.7-2.2 4.7-4.7v-5.6h-8.6c-1.8 0-3.2-1.6-3.2-3.5v-3.7c0-1.9 1.5-3.5 3.2-3.5H44V4.8zm-1 4.5h-7.7c-2.3 0-4.2 2-4.2 4.5v3.7c0 2.5 1.9 4.5 4.2 4.5h7.7v4.6c0 2.1-1.7 3.7-3.7 3.7H4.7c-2 0-3.7-1.7-3.7-3.7V4.9C1 2.8 2.6 1 4.7 1h34.5c2 0 3.7 1.7 3.7 3.7v4.6z"/><path class="st0" d="M34.2 15.6c0 1.7 1.4 3.2 3.2 3.2 1.7 0 3.2-1.4 3.2-3.2s-1.4-3.2-3.2-3.2c-1.8 0-3.2 1.4-3.2 3.2zm5.3 0c0 1.2-1 2.2-2.2 2.2-1.2 0-2.2-1-2.2-2.2s1-2.2 2.2-2.2c1.3 0 2.2 1 2.2 2.2z"/></svg>