<svg xmlns="http://www.w3.org/2000/svg" viewBox="0 0 42.1 70.8"><path class="st0" d="M29.6 39.9l-.1-.1L22 14.5c1.1-.4 1.8-1.4 1.8-2.6 0-1.5-1.3-2.8-2.8-2.8s-2.8 1.3-2.8 2.8c0 1.1.7 2.1 1.7 2.6L3.8 70.8l34.7-.1-9-30.7.1-.1zm-13.1-10L17 28l6.7-3.9L28 38.8l-11.5-8.9zm12 10.5l1 3.4L6.9 63.3 16.2 31l12.3 9.4zM21 14.7l2.4 8.3-5.9 3.6 3.4-11.9h.1zm-15.9 55l1.4-4.9.1.1 23.3-20 7.3 24.7-32.1.1zm2.6-48.8l.7-.7c-2-2.3-3-5.1-3-8.1 0-3.2 1.1-6.2 3.4-8.5l-.7-.7c-2.4 2.5-3.7 5.7-3.7 9.2 0 3.3 1.1 6.4 3.3 8.8zm-2.8 2c-2.6-3-4-6.9-4-10.8C.9 7.8 2.6 3.8 5.6.7L4.9 0C1.8 3.3 0 7.5 0 12.1c0 4.3 1.5 8.3 4.3 11.5l.6-.7z"/><path class="st0" d="M10.5 17.8l.7-.7C10 15.7 9.3 13.9 9.3 12c0-2.1.8-4 2.2-5.4l-.7-.7C9.1 7.6 8.3 9.7 8.3 12c0 2.2.8 4.2 2.2 5.8zm3.5-3c-.6-.8-1-1.8-1-2.8s.4-2.1 1.1-2.9l-.7-.7c-.9.9-1.4 2.3-1.4 3.6 0 1.2.5 2.5 1.3 3.4l.7-.6zm19.8 5.4l.8.7c2.2-2.5 3.3-5.6 3.2-8.8 0-3.4-1.3-6.7-3.7-9.2l-.7.7c2.2 2.3 3.4 5.3 3.4 8.5 0 3-1 5.8-3 8.1z"/><path class="st0" d="M37.2 22.9l.8.7c2.7-3.1 4.3-7.1 4.1-11.5 0-4.5-1.7-8.9-4.9-12.1l-.7.7c3 3.1 4.7 7.2 4.7 11.4 0 4-1.4 7.8-4 10.8zM31 17.1l.8.7c1.5-1.5 2.2-3.6 2.1-5.8 0-2.3-.9-4.4-2.5-6.1l-.7.7c1.5 1.5 2.2 3.3 2.2 5.4 0 1.9-.7 3.7-1.9 5.1zm-2.8-2.4l.8.7c.8-.9 1.3-2.1 1.2-3.5 0-1.3-.5-2.7-1.4-3.6l-.7.7c.7.7 1.1 1.8 1.1 2.9 0 1-.4 2.1-1 2.8z"/></svg>