<svg xmlns="http://www.w3.org/2000/svg" viewBox="0 0 56.8 71"><path class="st0" d="M36.9 13.9V4.5h-32v52.4h32v-9h-1.1v7.8H6.1v-50h29.7v8.2z"/><path class="st0" d="M40.5 67.1c0 1.5-1.2 2.7-2.7 2.7H3.9c-1.5 0-2.7-1.2-2.7-2.7V3.9c0-1.5 1.2-2.7 2.7-2.7h33.9c1.5 0 2.7 1.2 2.7 2.7V14h1.2V3.9c0-2.1-1.8-3.9-3.9-3.9H3.9C1.8 0 0 1.8 0 3.9v63.2C0 69.2 1.8 71 3.9 71h33.9c2.1 0 3.9-1.8 3.9-3.9v-19h-1.2v19z"/><path class="st0" d="M27.3 15.2L14.5 27.6v18.6h42.3v-31H27.3zM55.8 45h-40l.1-16.8L28 16.5h27.8V45zM16.7 63.4c0 2.4 1.9 4.3 4.3 4.3 2.3 0 4.2-1.9 4.3-4.3 0-2.4-1.9-4.3-4.3-4.3s-4.3 1.9-4.3 4.3zm7.4 0c0 1.7-1.4 3.1-3.1 3.1s-3.1-1.4-3.1-3.1 1.4-3.1 3.1-3.1 3.1 1.4 3.1 3.1z"/><path class="st0" d="M36.4 40.7c2.2 0 4.4-1.2 5.9-3 1.7-2.1 2.3-4.6 1.7-7.1-1.6-6.5-4.2-9.8-7.6-9.8-3.3 0-6.1 3.5-7.6 9.8-.6 2.5-.1 5.2 1.4 7.1 1.5 1.9 3.7 3 6.2 3zM30 30.9c1.3-5.7 3.7-8.9 6.4-8.9 2.8 0 5 3 6.4 9 .5 2.1 0 4.2-1.4 6-1.3 1.7-3.1 2.6-5 2.6-2.1 0-4-1-5.2-2.5-1.3-1.7-1.8-4-1.2-6.2z"/></svg>