<svg id="Layer_1" xmlns="http://www.w3.org/2000/svg" viewBox="0 0 60 40"><style>.st0{fill:gray}</style><path class="st0" d="M30 40c-11.028 0-20-8.972-20-20S18.972 0 30 0s20 8.972 20 20-8.972 20-20 20zm0-39C19.523 1 11 9.523 11 20s8.523 19 19 19 19-8.523 19-19S40.477 1 30 1z"/><path class="st0" d="M27.336 31.415L29.73 17.81h-2.307l.236-1.36h3.993L29.02 31.415h-1.685zm2.869-19.785c0-.857.62-1.449 1.36-1.449.768 0 1.271.592 1.271 1.271 0 .888-.591 1.48-1.36 1.48-.74 0-1.271-.592-1.271-1.302z"/></svg>