<svg id="Layer_1" xmlns="http://www.w3.org/2000/svg" viewBox="0 0 60 40"><style>.st0{fill:gray}</style><path class="st0" d="M41.271 40h-19.72a3.645 3.645 0 0 1-3.64-3.64V3.638a3.646 3.646 0 0 1 3.64-3.641h19.72a3.646 3.646 0 0 1 3.643 3.64V36.36A3.645 3.645 0 0 1 41.27 40zM21.546.997a2.644 2.644 0 0 0-2.641 2.64V36.36A2.644 2.644 0 0 0 21.546 39h19.73a2.644 2.644 0 0 0 2.643-2.64V3.638A2.645 2.645 0 0 0 41.276.997h-19.73z"/><path class="st0" d="M23.562 10.867a.498.498 0 0 1-.354-.853l4.668-4.669a.5.5 0 1 1 .707.707l-4.668 4.669a.498.498 0 0 1-.353.146zm.651 5.307a.498.498 0 0 1-.353-.853l9.324-9.324a.5.5 0 1 1 .707.707l-9.324 9.324a.498.498 0 0 1-.354.146zm6.774 19.024c-1.213 0-2.199-.986-2.199-2.199s.986-2.2 2.2-2.2c1.211 0 2.198.987 2.198 2.2s-.987 2.2-2.199 2.2zm0-3.398c-.66 0-1.199.538-1.199 1.199s.538 1.2 1.2 1.2a1.2 1.2 0 0 0 0-2.4z"/></svg>