<svg id="mobile" xmlns="http://www.w3.org/2000/svg" viewBox="0 0 60 40"><style>.st0{fill:#878787}</style><path class="st0" d="M28.52 40.216L10.814 22.508 31.235 1.101h9.421l2.147 2.147a.5.5 0 1 1-.707.707L40.242 2.1h-8.578L12.21 22.491l16.293 16.293L47.909 18.3V9.707l-.853-.854a.5.5 0 1 1 .707-.707l1.134 1.144v9.407L28.521 40.216z"/><path class="st0" d="M39.501 14c-1.93 0-3.5-1.57-3.5-3.5s1.57-3.5 3.5-3.5 3.5 1.57 3.5 3.5-1.57 3.5-3.5 3.5zm0-6c-1.378 0-2.5 1.121-2.5 2.5s1.122 2.5 2.5 2.5 2.5-1.122 2.5-2.5-1.122-2.5-2.5-2.5zM27.287 29.204a.5.5 0 0 1-.494-.422l-.693-4.38-4.38-.695a.5.5 0 0 1-.15-.939l3.952-2.013-.693-4.38a.5.5 0 0 1 .847-.432l3.136 3.136 3.95-2.013a.5.5 0 0 1 .673.672l-2.013 3.951 3.136 3.137a.5.5 0 0 1-.432.847l-4.38-.694-2.014 3.952a.499.499 0 0 1-.445.273zm-3.891-6.243l3.219.51a.5.5 0 0 1 .415.415l.51 3.22 1.48-2.905a.491.491 0 0 1 .523-.267l3.22.51-2.305-2.304a.5.5 0 0 1-.092-.581l1.48-2.904-2.904 1.48a.498.498 0 0 1-.58-.092l-2.305-2.305.51 3.22a.5.5 0 0 1-.267.523l-2.904 1.48z"/><path class="st0" d="M40.085 11c-.585 0-1.07-.176-1.42-.527a.5.5 0 1 1 .707-.707c.315.315 1.013.31 1.87-.015 1.01-.383 2.119-1.146 3.12-2.146 1-1 1.762-2.109 2.146-3.12.324-.855.33-1.554.014-1.87-.315-.315-1.015-.31-1.87.015a.5.5 0 1 1-.354-.935c1.27-.482 2.312-.407 2.932.214.62.619.695 1.66.212 2.93-.432 1.142-1.275 2.375-2.374 3.473s-2.33 1.941-3.472 2.374c-.552.21-1.06.314-1.51.314z"/></svg>