<svg id="Layer_1" xmlns="http://www.w3.org/2000/svg" viewBox="0 0 25.1 34.7"><style>.st0{fill:#adb8c1}</style><path class="st0" d="M7.7 34.7c-1.9 0-3.8-.7-5.3-2.1l-.5-.5-.1-.1c-.2-.3-.3-.4-.5-.7-1.5-2.2-1.7-5.4-.5-7.8 1.1-2.1 3-3.5 5.2-4s4.5 0 6.4 1.4c.2.1.3.2.4.4V2.7c0-1.5 0-2 .3-2.3.5-.5 1.4-.1 2 .2.1.1.2.1.3.1l3.3 1.5c1.1.5 2.3 1.1 3.4 1.6.6.3 1.1.5 1.7.8.6.2 1.2.7 1.2 1.8v6.2c0 .5-.1.8-.4 1-.5.3-1 0-1.3-.1-.8-.4-1.7-.8-2.6-1.2-1.2-.6-2.4-1.1-3.5-1.6L16 10c-.2-.1-.4-.2-.5-.2v16.1c0 1.1 0 2.2-.3 3.3-.3 1.1-.8 2-1.5 2.8-.1.1-.1.2-.2.2l-.3.3c-.5.4-1.4 1.1-1.9 1.4-1.1.5-2.4.8-3.6.8zm0-14.4c-.5 0-1 .1-1.5.2-1.9.4-3.6 1.7-4.5 3.5-1.1 2.1-.9 4.9.4 6.8.2.3.3.4.5.6l.2.2c.1.1.2.3.4.4 1.3 1.2 2.9 1.8 4.6 1.8 1.1 0 2.2-.3 3-.7.5-.2 1.3-.8 1.7-1.2.1-.1.1-.2.2-.3.1-.1.1-.2.2-.3.6-.7 1-1.5 1.3-2.4.3-.9.3-1.9.3-3V8.3l.7.3c.3.1.5.2.8.3l.4.2 1.2.6c1.1.5 2.3 1.1 3.5 1.6.9.4 1.8.8 2.6 1.2.1.1.2.1.3.1V6.4c0-.5-.2-.7-.7-1-.5-.3-1.1-.5-1.7-.8-1.1-.5-2.3-1-3.4-1.6-1.1-.5-2.2-1-3.2-1.5-.1 0-.2-.1-.3-.2-.2 0-.7-.3-.9-.3v22.5L12.3 22c-.2-.2-.3-.3-.6-.5-1.1-.7-2.5-1.2-4-1.2z"/></svg>