<svg id="Capa_1" xmlns="http://www.w3.org/2000/svg" viewBox="0 0 34.3 34.3"><style>.st0{fill:#ff9100}</style><path class="st0" d="M17.1 14.3c1.6 0 2.9-1.3 2.9-2.9 0-1.6-1.3-2.9-2.9-2.9s-3 1.3-2.9 3c.1 1.5 1.4 2.8 2.9 2.8z"/><path class="st0" d="M17.1.1C7.8.1.1 7.8.1 17.1s7.7 17 17 17 17-7.7 17-17-7.6-17-17-17zm0 5.2c3.3 0 6 2.7 6 6.1 0 3.3-2.7 5.9-6 5.9s-6-2.7-6-6 2.8-6 6-6zm6.7 14.3c-.7.8-1.6 1.3-2.6 1.7-.9.3-2 .5-3 .7.1.2.2.2.3.3l4.1 4.1c.5.5.6 1 .3 1.6-.3.6-.9 1-1.5.9-.4 0-.7-.2-1-.5l-3.1-3.1c-.3-.3-.4-.2-.7 0-1 1.1-2.1 2.1-3.1 3.2-.5.5-1 .6-1.6.3-.6-.3-1-.9-.9-1.5 0-.4.2-.7.5-1l4.1-4.1.3-.3c-1.9-.2-3.5-.6-4.9-1.7-.2-.1-.3-.3-.5-.4-.6-.6-.7-1.3-.2-2 .4-.6 1.1-.8 1.9-.4.1.1.3.1.4.2 2.7 1.8 6.3 1.9 8.9.1.3-.2.6-.3.9-.5.6-.2 1.2.1 1.6.6.3.7.3 1.3-.2 1.8z"/></svg>