<svg id="Layer_1" xmlns="http://www.w3.org/2000/svg" viewBox="0 0 51 33.8"><style>.st0{fill:#adb8c1}</style><path class="st0" d="M48.9 0H2.1C1 0 0 1 0 2.1v29.6c0 1.1 1 2.1 2.1 2.1h46.7c1.1 0 2.1-1 2.1-2.1V2.1c.2-1.1-.8-2.1-2-2.1zm1.4 31.7c0 .8-.6 1.3-1.3 1.3H2.1c-.7 0-1.3-.6-1.3-1.3V2.1c0-.7.6-1.3 1.3-1.3h46.7c.7 0 1.3.6 1.3 1.3l.2 29.6z"/><path class="st0" d="M7 30.3h40.5V3.5H7v26.8zm.8-26.1h39v25.3h-39V4.2zM4 15.1c-1 0-1.8.8-1.8 1.8S3 18.7 4 18.7s1.8-.8 1.8-1.8-.9-1.8-1.8-1.8zM4 18c-.6 0-1.1-.4-1.1-1.1 0-.6.4-1.1 1.1-1.1s1 .4 1 1.1c-.1.6-.5 1.1-1 1.1z"/><path class="st0" d="M31.6 15.9l-6.9-5.5c-.2-.2-.4-.3-.5-.3-.4 0-.7.3-.7.8v11.4c0 .5.4.8.7.8.2 0 .4-.1.5-.3l6.9-5.5c.3-.2.4-.5.4-.8 0 0-.1-.4-.4-.6zm-.4 1l-6.9 5.5V11l6.9 5.5c.1.1.1.1.1.2s-.1.2-.1.2z"/></svg>