<svg id="Layer_1" xmlns="http://www.w3.org/2000/svg" viewBox="0 0 34.6 34.6"><style>.st0{fill:#adb8c1}</style><path class="st0" d="M17.3 0C7.7 0 0 7.8 0 17.3s7.7 17.3 17.3 17.3 17.3-7.7 17.3-17.3C34.6 7.7 26.9 0 17.3 0zm0 33.7C8.3 33.7 1 26.3 1 17.4c0-9 7.4-16.3 16.3-16.3s16.3 7.4 16.3 16.3-7.3 16.3-16.3 16.3z"/><path class="st0" d="M32.6 16.8h-6.2c0-2.1-.4-4.1-.8-5.9 1.5-.8 3-1.9 4.2-3.2.2-.2.2-.5 0-.7s-.5-.2-.7 0c-1.2 1.2-2.4 2.2-3.8 2.9-1.5-4.9-4.4-8.2-7.7-8.4-.1-.1-.2-.1-.3-.1-.1 0-.2 0-.3.1-3.3.1-6.2 3.5-7.7 8.3-1.4-.7-2.6-1.7-3.7-2.9-.2-.1-.6-.1-.7 0s-.2.5 0 .7C6 8.9 7.5 10 9 10.8c-.5 1.8-.7 3.8-.8 5.9H1.9c-.3.1-.5.3-.5.5 0 .4.3.5.5.5h6.2c0 2.2.3 4.1.8 5.9-1.5.8-2.9 1.9-4.1 3.2-.2.2-.2.5 0 .7 0 .2.1.2.2.2s.3 0 .3-.1c1.2-1.2 2.4-2.2 3.8-2.9 1.5 5 4.6 8.5 8.1 8.5s6.5-3.4 8-8.4c1.4.7 2.5 1.7 3.7 2.9.2.2.5.2.7 0 .2-.2.2-.5 0-.7-1.2-1.3-2.6-2.3-4.1-3.2.5-1.8.7-3.9.8-5.9h6.2c.3 0 .5-.2.5-.5.2-.5-.1-.6-.4-.6zm-7.2 0h-7.6V13c2.4-.1 4.8-.6 6.9-1.7.4 1.7.7 3.5.7 5.5zm-.9-6.5c-2.1 1-4.3 1.5-6.7 1.6V2.4c2.9.3 5.4 3.5 6.7 7.9zm-7.7-7.9v9.5c-2.3-.1-4.6-.6-6.7-1.6 1.3-4.4 3.8-7.6 6.7-7.9zm-7 8.9c2.2 1 4.5 1.6 6.9 1.6v3.8H9.2c0-1.9.3-3.7.6-5.4zm-.6 6.5h7.6v3.9c-2.4.1-4.8.6-6.9 1.6-.4-1.7-.7-3.6-.7-5.5zm.9 6.5c2.1-1 4.3-1.5 6.7-1.6v9.5c-2.9-.4-5.4-3.5-6.7-7.9zm7.7 7.8v-9.4c2.3.1 4.6.6 6.7 1.6-1.3 4.4-3.8 7.5-6.7 7.8zm7-8.9c-2.2-1-4.5-1.5-6.9-1.6v-3.9h7.6c-.1 2-.4 3.9-.7 5.5z"/></svg>