<svg id="Слой_1" xmlns="http://www.w3.org/2000/svg" viewBox="0 0 43.7 43.7"><style>.st0{fill:#b2bcc5}</style><path class="st0" d="M9.7 10c-.1 0-.2 0-.3-.1-.2-.2-.2-.5 0-.7l2.8-2.7c.2-.2.5-.2.7 0 .2.2.2.5 0 .7l-2.7 2.7c-.2.1-.3.1-.5.1zm.9 4.2c-.1 0-.2 0-.3-.1-.2-.2-.2-.5 0-.7l6.1-6.1c.2-.2.5-.2.7 0 .2.2.2.5 0 .7L11 14.1c-.2.1-.2.1-.4.1z"/><path class="st0" d="M25.3 40.9H8.4c-1.6 0-2.9-1.3-2.9-2.9V5.3c0-1.6 1.3-2.9 2.9-2.9h16.9c1.6 0 2.9 1.3 2.9 2.9v5.6h-1V5.3c0-1.1-.9-2-2-2H8.4c-1.1 0-2 .9-2 2v32.6c0 1.1.9 2 2 2h16.9c1.1 0 2-.9 2-2v-7.6h1v7.6c0 1.6-1.3 3-3 3z"/><path class="st0" d="M30 29.7l-10.4-9.1L30 11.5v4.9h9.9V25H30v4.7zm-9-9.1l8 7v-3.7h9.9v-6.6H29v-3.7l-8 7zM16.9 37c-1.3 0-2.2-1-2.2-2.2 0-1.3 1-2.2 2.2-2.2s2.2 1 2.2 2.2c0 1.2-1 2.2-2.2 2.2zm0-3.6c-.7 0-1.3.6-1.3 1.3 0 .7.6 1.3 1.3 1.3s1.3-.6 1.3-1.3c0-.7-.6-1.3-1.3-1.3z"/></svg>