<svg id="Слой_1" xmlns="http://www.w3.org/2000/svg" viewBox="0 0 20.6 34.8"><style>.st0{fill:#adb8c1}</style><path class="st0" d="M17.8 0h-15C1.3 0 0 1.3 0 2.8V32c0 1.5 1.3 2.8 2.8 2.8h15c1.5 0 2.8-1.3 2.8-2.8V2.8c0-1.5-1.3-2.8-2.8-2.8zm2 32.1c0 1.2-.8 2-2 2h-15c-1.2 0-2-.8-2-2V2.8c0-1.1.8-2 2-2h15c1.2 0 2 .8 2 2v29.3z"/><path class="st0" d="M2.4 27.7h15.8V2.4H2.4v25.3zm.7-24.5h14.2V27H3.1V3.2zm7.2 25.3c-1.1 0-2 .9-2 2s.9 2 2 2 2-.9 2-2-.9-2-2-2zm0 3.2c-.6 0-1.2-.5-1.2-1.2 0-.6.5-1.2 1.2-1.2.6 0 1.2.5 1.2 1.2 0 .6-.5 1.2-1.2 1.2z"/></svg>