<svg xmlns="http://www.w3.org/2000/svg" viewBox="0 0 199.653 199.653"><path d="M131.111 122.83l-1.696-1.378-21.913-74.605c2.552-2.086 4.001-5.118 4.001-8.41 0-6.023-4.903-10.93-10.93-10.93-6.023 0-10.926 4.907-10.926 10.93 0 3.876 2.047 7.412 5.393 9.38L83.387 87.514l-1.668 1.489.988.805-31.616 107.62-.236.809 4.835 1.414 3.847-13.077 66.391-59.13 20.983 71.405.24.805 4.835-1.414-21.895-74.497 1.02-.913zm-7.773.157l-61.112 54.431 24.723-84.15 36.389 29.719zm-33.86-34.156L109.37 71.08l13.142 44.725-33.034-26.974zm1.028-7.677l9.362-31.837c.952.111 1.95.011 3.042-.24l4.892 16.652-17.296 15.425zm30.584-47.209c0 2.348-.612 4.667-1.761 6.71l-.2.673 2.215 2.605.616-1.009a17.074 17.074 0 0 0 2.555-8.979c0-3.003-.809-5.97-2.33-8.582l-.412-.709-.723.404c-.472.258-.963.483-1.464.673l-.952.347.523.87a13.668 13.668 0 0 1 1.933 6.997zm5.623 16.871c.125.132.258.254.379.39l.651.719.619-.759c4.005-4.867 6.209-10.987 6.209-17.221 0-5.662-1.768-11.116-5.118-15.79l-.676-.938-.684.934c-.354.49-.719.981-1.099 1.453l-.387.487.351.512c2.741 3.983 4.184 8.589 4.184 13.346 0 5.458-1.814 10.597-5.25 14.874l-.401.505.712.963c.166.178.338.353.51.525z" fill="#010002"/><path d="M142.066 33.945c0 8.213-2.985 16.219-8.403 22.536l-.537.626.619.548c.301.268.612.53.92.784l1.066.909.544-.637c5.944-6.932 9.219-15.729 9.219-24.769 0-9.337-3.446-18.342-9.692-25.349l-.691-.787-.616.855c-.351.487-.694.991-1.041 1.507l-.365.53.422.487a34.624 34.624 0 0 1 8.555 22.76z" fill="#010002"/><path d="M152.985 33.945c0 10.794-3.862 21.28-10.88 29.536l-.558.662.676.533a63.4 63.4 0 0 1 1.174.995l.777.673.548-.644c7.541-8.872 11.696-20.145 11.696-31.755 0-12.39-4.652-24.232-13.099-33.348L142.764 0l-.616.533c-.29.251-.583.523-.863.784l-1.081.984.58.626c7.871 8.475 12.201 19.491 12.201 31.018zm-74.68 9.989l2.316-2.745-.297-.53a13.693 13.693 0 0 1-1.764-6.71c0-2.462.673-4.882 1.936-7l.519-.87-.948-.347a12.245 12.245 0 0 1-1.464-.673l-.719-.404-.412.709a16.976 16.976 0 0 0-2.333 8.582c0 3.157.88 6.267 2.552 8.979l.614 1.009zm-7.011 7.233l.612.759.655-.719c.125-.136.251-.258.383-.39.172-.172.344-.347.548-.587l.673-.902-.404-.505c-3.432-4.277-5.254-9.416-5.254-14.874 0-4.756 1.449-9.362 4.184-13.346l.354-.512-.39-.487a34 34 0 0 1-1.102-1.453l-.68-.934-.673.941c-3.346 4.67-5.118 10.128-5.118 15.79-.001 6.232 2.208 12.348 6.212 17.219z" fill="#010002"/><path d="M63.381 58.715l.544.637 1.066-.909c.308-.254.616-.519.916-.784l.623-.548-.544-.626c-5.418-6.317-8.4-14.319-8.4-22.536a34.619 34.619 0 0 1 8.553-22.754l.422-.487-.361-.533a75.06 75.06 0 0 0-1.041-1.507l-.612-.855-.697.787c-6.252 7.007-9.692 16.012-9.692 25.349.004 9.037 3.275 17.837 9.223 24.766z" fill="#010002"/><path d="M55.612 66.227l.641-.551c.39-.333.784-.673 1.185-.995l.673-.533-.558-.662C50.531 55.23 46.666 44.744 46.666 33.95c0-11.531 4.338-22.543 12.207-31.014l.576-.626-1.07-.984c-.29-.261-.58-.533-.87-.784L56.89.009l-.548.598c-8.45 9.115-13.106 20.958-13.106 33.348 0 11.61 4.155 22.883 11.699 31.755l.677.517z" fill="#010002"/></svg>