<svg id="Capa_1" xmlns="http://www.w3.org/2000/svg" viewBox="0 0 34.3 34.3"><style>.st0{fill:#fcfcfc}</style><path class="st0" d="M17.1.1C7.8.1.1 7.7.1 17.1s7.6 17 17 17 17-7.7 17-17-7.6-17-17-17zm8.5 13.3v.5c0 5.6-4.2 11.9-11.9 11.9-2.4 0-4.6-.7-6.4-1.9.3 0 .7.1 1 .1 2 0 3.8-.7 5.2-1.8-1.8 0-3.4-1.3-3.9-2.9.3 0 .5.1.8.1.4 0 .8 0 1.1-.1-1.9-.4-3.4-2.1-3.4-4.1v-.1c.6.3 1.2.5 1.9.5-1.1-.8-1.9-2-1.9-3.5 0-.8.2-1.5.6-2.1 2.1 2.5 5.2 4.2 8.7 4.4-.1-.3-.1-.6-.1-1 0-2.3 1.9-4.2 4.2-4.2 1.2 0 2.3.5 3.1 1.3 1-.2 1.9-.5 2.7-1-.3 1-1 1.8-1.8 2.3.8-.1 1.7-.3 2.4-.7-.8.9-1.5 1.7-2.3 2.3z"/></svg>