<svg id="Capa_1" xmlns="http://www.w3.org/2000/svg" viewBox="0 0 34.3 34.3"><style>.st0{fill:#fcfcfc}</style><path class="st0" d="M17.1.1C7.8.1.1 7.8.1 17.1s7.7 17 17 17 17-7.7 17-17-7.6-17-17-17zm8.7 18.8c.8.8 1.6 1.5 2.3 2.4.3.4.6.8.8 1.2.3.6 0 1.3-.5 1.4h-3.5c-.9.1-1.6-.3-2.2-.9-.5-.5-.9-1-1.4-1.5l-.6-.6c-.5-.3-.9-.2-1.2.3-.3.5-.3 1.1-.4 1.6 0 .8-.3 1-1.1 1.1-1.8.1-3.5-.2-5-1.1-1.4-.8-2.4-1.9-3.4-3.1-1.8-2.4-3.2-5.1-4.4-7.9-.3-.6-.1-.9.6-1h3.4c.5 0 .8.3.9.7.6 1.5 1.4 3 2.3 4.3.2.3.5.7.9 1 .4.3.7.2.9-.3.1-.3.2-.6.2-.9.1-1 .1-2.1-.1-3.1-.1-.7-.5-1.1-1.1-1.3-.3-.1-.3-.2-.1-.4.3-.3.6-.5 1.1-.5h4c.6.1.8.4.8 1v4.4c0 .2.1 1 .6 1.1.3.1.6-.2.8-.4.9-1 1.6-2.2 2.2-3.4.3-.6.5-1.1.7-1.7.2-.4.4-.6.9-.6h4.1c.6.1.8.4.6 1-.3 1-.9 1.8-1.5 2.6-.6.9-1.3 1.7-2 2.6-.4.9-.4 1.3.4 2z"/></svg>