<svg id="Слой_1" xmlns="http://www.w3.org/2000/svg" viewBox="0 0 32.9 27.7"><style>.st0{fill:#e30613}</style><path class="st0" d="M32.7 6.8C28.4 2.5 22.6.1 16.5.1S4.7 2.5.3 6.8c-.3.3-.3.8 0 1.1s.8.3 1.1 0c4-4 9.4-6.2 15.1-6.2s11 2.2 15.1 6.2c.2.2.3.2.5.2s.4-.1.5-.2c.4-.3.4-.8.1-1.1zM16.5 9.1c-3.7 0-7.2 1.4-9.8 4.1-.3.3-.3.8 0 1.1.2.2.3.2.5.2s.4-.1.5-.2c2.3-2.3 5.4-3.6 8.7-3.6s6.4 1.3 8.7 3.6c.3.3.8.3 1.1 0 .3-.3.3-.8 0-1.1-2.5-2.6-6-4.1-9.7-4.1zm0 9c-1.3 0-2.5.5-3.4 1.4s-1.4 2.1-1.4 3.4.5 2.5 1.4 3.4 2.1 1.4 3.4 1.4 2.5-.5 3.4-1.4 1.4-2.1 1.4-3.4-.5-2.5-1.4-3.4-2.1-1.4-3.4-1.4zm2.3 7.2a3.32 3.32 0 0 1-4.7 0c-.6-.6-1-1.5-1-2.3 0-.9.3-1.7 1-2.3.6-.6 1.5-1 2.3-1 .9 0 1.7.3 2.3 1 .6.6 1 1.5 1 2.3.1.9-.2 1.7-.9 2.3z"/></svg>